<?xml version="1.0" encoding="UTF-8" standalone="no"?>
<!-- Created with Inkscape (http://www.inkscape.org/) -->

<svg
   xmlns:dc="http://purl.org/dc/elements/1.1/"
   xmlns:cc="http://creativecommons.org/ns#"
   xmlns:rdf="http://www.w3.org/1999/02/22-rdf-syntax-ns#"
   xmlns:svg="http://www.w3.org/2000/svg"
   xmlns="http://www.w3.org/2000/svg"
   xmlns:sodipodi="http://sodipodi.sourceforge.net/DTD/sodipodi-0.dtd"
   xmlns:inkscape="http://www.inkscape.org/namespaces/inkscape"
   width="210mm"
   height="297mm"
   viewBox="0 0 744.09448819 1052.3622047"
   id="svg2"
   version="1.1"
   inkscape:version="0.91 r13725"
   sodipodi:docname="mockup_landing.svg">
  <defs
     id="defs4">
    <filter
       inkscape:collect="always"
       style="color-interpolation-filters:sRGB"
       id="filter4602"
       x="-0.21153846"
       width="1.4230769"
       y="-0.515625"
       height="2.03125">
      <feGaussianBlur
         inkscape:collect="always"
         stdDeviation="19.642859"
         id="feGaussianBlur4604" />
    </filter>
    <filter
       inkscape:collect="always"
       style="color-interpolation-filters:sRGB"
       id="filter4582"
       x="-0.21153846"
       width="1.4230769"
       y="-0.515625"
       height="2.03125">
      <feGaussianBlur
         inkscape:collect="always"
         stdDeviation="19.642859"
         id="feGaussianBlur4584" />
    </filter>
  </defs>
  <sodipodi:namedview
     id="base"
     pagecolor="#ffffff"
     bordercolor="#666666"
     borderopacity="1.0"
     inkscape:pageopacity="0.0"
     inkscape:pageshadow="2"
     inkscape:zoom="0.35"
     inkscape:cx="221.67642"
     inkscape:cy="857.5024"
     inkscape:document-units="px"
     inkscape:current-layer="layer1"
     showgrid="false"
     inkscape:window-width="1323"
     inkscape:window-height="747"
     inkscape:window-x="43"
     inkscape:window-y="21"
     inkscape:window-maximized="1" />
  <metadata
     id="metadata7">
    <rdf:RDF>
      <cc:Work
         rdf:about="">
        <dc:format>image/svg+xml</dc:format>
        <dc:type
           rdf:resource="http://purl.org/dc/dcmitype/StillImage" />
        <dc:title></dc:title>
      </cc:Work>
    </rdf:RDF>
  </metadata>
  <g
     inkscape:label="Layer 1"
     inkscape:groupmode="layer"
     id="layer1">
    <g
       style="opacity:0.4"
       id="g3659"
       transform="translate(236.85663,44.932133)" />
    <g
       id="g3667"
       transform="translate(236.85663,44.932133)" />
    <g
       id="g3669"
       transform="translate(236.85663,44.932133)" />
    <g
       id="g3671"
       transform="translate(236.85663,44.932133)" />
    <g
       id="g3673"
       transform="translate(236.85663,44.932133)" />
    <g
       id="g3675"
       transform="translate(236.85663,44.932133)" />
    <g
       id="g3677"
       transform="translate(236.85663,44.932133)" />
    <g
       id="g3679"
       transform="translate(236.85663,44.932133)" />
    <g
       id="g3681"
       transform="translate(236.85663,44.932133)" />
    <g
       id="g3683"
       transform="translate(236.85663,44.932133)" />
    <g
       id="g3685"
       transform="translate(236.85663,44.932133)" />
    <g
       id="g3687"
       transform="translate(236.85663,44.932133)" />
    <g
       id="g3689"
       transform="translate(236.85663,44.932133)" />
    <g
       id="g3691"
       transform="translate(236.85663,44.932133)" />
    <g
       id="g3693"
       transform="translate(236.85663,44.932133)" />
    <g
       id="g3695"
       transform="translate(236.85663,44.932133)" />
    <rect
       style="opacity:1;fill:#c2c2c2;fill-opacity:1"
       id="rect4266"
       width="1280"
       height="720"
       x="-300"
       y="112.36223" />
    <g
       id="g4356"
       transform="matrix(0.45477473,0,0,0.45477473,343.13964,158.14734)">
      <g
         transform="translate(-371.73613,-246.47722)"
         id="g4268">
        <g
           transform="translate(110.70145,217.3012)"
           id="g5081"
           inkscape:export-xdpi="90"
           inkscape:export-ydpi="90">
          <g
             id="g6071"
             transform="matrix(0.23537048,-0.2610645,0.2610645,0.23537048,-78.984527,102.86106)">
            <path
               id="path5991"
               d="m 256,111.304 0,-44.521 C 151.499,66.783 66.783,151.499 66.783,256 c 0,104.501 84.716,189.217 189.217,189.217 l 0,-44.522 c -1.736,0 -3.463,-0.041 -5.185,-0.102 1.722,0.061 3.448,0.102 5.185,0.102 l 0,-211.478 c -48.966,0 -110.429,18.15 -139.346,27.687 -0.404,1.445 -0.782,2.901 -1.143,4.363 C 131.069,158.131 188.061,111.304 256,111.304 Z M 113.289,279.948 c 0.181,1.09 0.375,2.176 0.581,3.258 -0.206,-1.082 -0.4,-2.167 -0.581,-3.258 z m 131.276,120.299 c 1.695,0.134 3.401,0.229 5.113,0.303 -1.712,-0.074 -3.418,-0.17 -5.113,-0.303 z m -33.086,-6.541 c 3.488,1.128 7.034,2.125 10.633,2.99 -3.599,-0.864 -7.144,-1.863 -10.633,-2.99 z m 10.726,3.012 c 1.79,0.429 3.592,0.825 5.407,1.186 -1.816,-0.361 -3.618,-0.758 -5.407,-1.186 z m 5.475,1.199 c 1.755,0.348 3.522,0.663 5.299,0.948 -1.777,-0.284 -3.544,-0.599 -5.299,-0.948 z m 5.589,0.997 c 1.733,0.274 3.476,0.514 5.228,0.726 -1.753,-0.212 -3.496,-0.454 -5.228,-0.726 z m 5.974,0.81 c 1.633,0.189 3.272,0.353 4.921,0.487 -1.649,-0.133 -3.288,-0.298 -4.921,-0.487 z m -27.765,-56.539 0,50.521 C 161.751,377.639 123.8,335.394 113.87,283.209 c 1.558,-0.063 3.16,0.109 4.762,0.59 l 62.644,18.794 c 17.926,5.376 30.202,21.876 30.202,40.592 z"
               style="fill:#787680"
               inkscape:connector-curvature="0" />
            <path
               id="path5993"
               d="m 251.70945,66.783 0,44.522 c 67.516,0 124.229,46.243 140.201,108.782 -0.274,-1.065 -0.559,-2.126 -0.855,-3.182 -28.917,-9.537 -90.38,-27.687 -139.346,-27.687 l 0,211.478 c 1.666,0 3.322,-0.039 4.974,-0.095 -1.652,0.056 -3.309,0.095 -4.974,0.095 l 0,44.522 c 104.501,0 189.217,-84.716 189.217,-189.217 0,-104.501 -84.716,-189.218 -189.217,-189.218 z m 142.992,211.478 c -0.081,0.523 -0.173,1.043 -0.259,1.564 0.086,-0.52 0.161,-1.043 0.242,-1.564 l 0.017,0 z m -136.78,122.293 c 1.647,-0.07 3.289,-0.156 4.922,-0.28 1.634,-0.125 3.257,-0.286 4.875,-0.464 -1.618,0.178 -3.241,0.339 -4.875,0.464 -1.633,0.123 -3.276,0.21 -4.922,0.28 z m 21.768,-2.572 c 1.574,-0.308 3.143,-0.633 4.698,-0.992 1.556,-0.359 3.099,-0.752 4.636,-1.162 -1.537,0.409 -3.08,0.803 -4.636,1.162 -1.556,0.36 -3.124,0.684 -4.698,0.992 z m -10.76,1.69 c 3.227,-0.383 6.421,-0.872 9.58,-1.463 -3.158,0.591 -6.352,1.08 -9.58,1.463 z m 21.245,-4.155 c 1.53,-0.421 3.054,-0.857 4.563,-1.327 -1.509,0.47 -3.033,0.906 -4.563,1.327 z m 6.057,-1.811 0,-50.521 c 0,-18.716 12.276,-35.214 30.202,-40.593 l 62.644,-18.794 c 1.603,-0.481 3.204,-0.653 4.762,-0.59 -9.931,52.185 -47.881,94.431 -97.608,110.498 z m 98.189,-113.758 c -0.181,1.09 -0.375,2.176 -0.581,3.258 0.206,-1.082 0.4,-2.167 0.581,-3.258 z"
               style="fill:#787680;fill-opacity:1"
               inkscape:connector-curvature="0" />
            <g
               id="g5995">
              <path
                 id="path5997"
                 d="m 396.99,223.322 c -0.499,-2.159 -1.051,-4.297 -1.644,-6.418 l 0,0 c 0.594,2.122 1.146,4.26 1.644,6.418 z"
                 style="fill:#87868a"
                 inkscape:connector-curvature="0" />
              <path
                 id="path5999"
                 d="m 299.028,394.19 c 0.501,-0.156 0.995,-0.324 1.494,-0.485 l 0,0 c -0.499,0.161 -0.993,0.33 -1.494,0.485 z"
                 style="fill:#87868a"
                 inkscape:connector-curvature="0" />
            </g>
            <circle
               id="circle6001"
               r="22.261"
               cy="250.435"
               cx="155.826"
               style="fill:#ffffff;fill-opacity:1" />
            <circle
               id="circle6011"
               r="55.652"
               cy="256"
               cx="256"
               style="fill:#ff0c38;fill-opacity:1" />
            <circle
               id="circle6015"
               r="33.390999"
               cy="256"
               cx="256"
               style="fill:#ff0c38;fill-opacity:1" />
            <path
               id="path6019"
               d="m 111.304,256 c 0,-79.913 64.782,-144.696 144.696,-144.696 l 0,-44.521 C 151.499,66.783 66.783,151.499 66.783,256 c 0,104.501 84.716,189.217 189.217,189.217 l 0,-44.522 C 176.087,400.696 111.304,335.913 111.304,256 Z"
               style="fill:#57565c"
               inkscape:connector-curvature="0" />
            <path
               id="path6021"
               d="m 396.40545,256 c 0,-79.913 -64.782,-144.696 -144.696,-144.696 l 0,-44.521 c 104.501,0 189.217,84.716 189.217,189.217 0,104.501 -84.716,189.217 -189.217,189.217 l 0,-44.522 c 79.913,0.001 144.696,-64.782 144.696,-144.695 z"
               style="fill:#3e3d42"
               inkscape:connector-curvature="0" />
            <g
               id="g6023">
              <path
                 id="path6025"
                 d="m 256.026,111.304 0,-44.521 c -62.895,0 -118.613,30.696 -153.018,77.913 l 60.564,0 c 25.072,-20.849 57.297,-33.392 92.454,-33.392 z"
                 style="fill:#ff0c38"
                 inkscape:connector-curvature="0" />
              <path
                 id="path6027"
                 d="m 163.572,367.304 -60.564,0 c 34.405,47.218 90.122,77.913 153.018,77.913 l 0,-44.522 c -35.157,0.001 -67.382,-12.542 -92.454,-33.391 z"
                 style="fill:#ff0c38"
                 inkscape:connector-curvature="0" />
            </g>
            <g
               id="g6029"
               style="fill:#ff0c38;fill-opacity:1"
               transform="translate(-4.29055,0)">
              <path
                 id="path6031"
                 d="m 348.479,144.696 60.564,0 C 374.638,97.478 318.921,66.783 256.025,66.783 l 0,44.522 c 35.157,-0.001 67.382,12.542 92.454,33.391 z"
                 style="fill:#ff0c38;fill-opacity:1"
                 inkscape:connector-curvature="0" />
              <path
                 id="path6033"
                 d="m 256.026,400.696 0,44.522 c 62.895,0 118.613,-30.696 153.018,-77.913 l -60.564,0 c -25.073,20.848 -57.298,33.391 -92.454,33.391 z"
                 style="fill:#ff0c38;fill-opacity:1"
                 inkscape:connector-curvature="0" />
            </g>
            <g
               id="g6035" />
            <g
               id="g6037" />
            <g
               id="g6039" />
            <g
               id="g6041" />
            <g
               id="g6043" />
            <g
               id="g6045" />
            <g
               id="g6047" />
            <g
               id="g6049" />
            <g
               id="g6051" />
            <g
               id="g6053" />
            <g
               id="g6055" />
            <g
               id="g6057" />
            <g
               id="g6059" />
            <g
               id="g6061" />
            <g
               id="g6063" />
            <circle
               id="circle6001-9"
               r="22.261"
               cy="252.16492"
               cx="359.06442"
               style="fill:#ffffff;fill-opacity:1" />
          </g>
          <path
             inkscape:connector-curvature="0"
             style="fill:#9bd8eb"
             d="m 256.273,458.54 0,-213.798 -51.896,0 0,213.798 c 0,8.842 -6.064,16.53 -14.663,18.59 l -25.735,6.165 c -4.904,1.175 -8.362,5.56 -8.362,10.602 l 0,7.2 c 0,6.021 4.881,10.902 10.902,10.902 l 127.61,0 c 6.021,0 10.902,-4.881 10.902,-10.902 l 0,-7.2 c 0,-5.043 -3.458,-9.427 -8.362,-10.602 l -25.735,-6.165 c -8.598,-2.06 -14.661,-9.748 -14.661,-18.59 z"
             id="path4995" />
          <g
             style="opacity:0.1"
             id="g4997">
            <path
               inkscape:connector-curvature="0"
               d="m 296.67,483.296 -25.735,-6.165 c -8.599,-2.06 -14.662,-9.748 -14.662,-18.59 l 0,-213.799 -51.896,0 0,101.301 c 9.914,8.579 23.162,11.408 35.283,8.505 l 0,111.69 c 0,8.842 6.064,16.53 14.663,18.59 l 25.735,6.165 c 4.904,1.175 8.362,5.56 8.362,10.602 l 0,7.2 c 0,1.115 -0.169,2.19 -0.48,3.204 l 6.191,0 c 6.021,0 10.902,-4.881 10.902,-10.902 l 0,-7.2 c -0.001,-5.042 -3.459,-9.427 -8.363,-10.601 z"
               id="path4999" />
          </g>
          <path
             inkscape:connector-curvature="0"
             style="fill:#9bd8eb"
             d="m 405.099,85.306 -349.548,0 c -11.716,0 -18.378,13.403 -11.303,22.743 l 154.376,203.79 c 15.914,21.008 47.489,21.008 63.403,0 l 154.376,-203.79 c 7.074,-9.34 0.412,-22.743 -11.304,-22.743 z"
             id="path5001" />
          <path
             inkscape:connector-curvature="0"
             style="fill:#9bd8eb;fill-opacity:0.63380283"
             d="m 405.07464,85.139656 -349.547993,0 c -11.716,0 -18.378,13.402998 -11.303,22.742994 l 154.375993,203.79 c 15.914,21.008 47.489,21.008 63.403,0 l 154.376,-203.79 c 7.074,-9.339996 0.412,-22.742994 -11.304,-22.742994 z"
             id="path5001-5" />
          <path
             inkscape:connector-curvature="0"
             style="fill:#e85668"
             d="m 80.222,155.538 118.401,156.3 c 15.914,21.008 47.489,21.008 63.403,0 l 118.401,-156.3 -300.205,0 0,0 z"
             id="path5005" />
          <polygon
             style="fill:#e85668;fill-opacity:1"
             points="380.427,155.538 80.222,155.538 101.674,183.856 358.975,183.856 "
             id="polygon5007" />
          <g
             style="opacity:0.4"
             id="g5039">
            <ellipse
               style="fill:#f98f9d"
               cx="278.069"
               cy="243.11"
               rx="21.284"
               ry="12.755"
               id="ellipse5041" />
            <ellipse
               style="fill:#f98f9d"
               cx="182.57899"
               cy="243.11"
               rx="21.284"
               ry="12.755"
               id="ellipse5043" />
          </g>
          <g
             id="g5045" />
          <g
             id="g5047" />
          <g
             id="g5049" />
          <g
             id="g5051" />
          <g
             id="g5053" />
          <g
             id="g5055" />
          <g
             id="g5057" />
          <g
             id="g5059" />
          <g
             id="g5061" />
          <g
             id="g5063" />
          <g
             id="g5065" />
          <g
             id="g5067" />
          <g
             id="g5069" />
          <g
             id="g5071" />
          <g
             id="g5073" />
          <g
             transform="matrix(0.56550738,0,0,0.56550738,-83.30079,6.0931804)"
             id="g4739"
             style="fill:#000000;fill-opacity:1">
            <g
               transform="matrix(-1.39996,0.01040711,-0.01040711,-1.39996,1650.9528,818.80175)"
               id="g4687"
               style="fill:#000000;fill-opacity:1">
              <path
                 style="fill:#000000;fill-opacity:1"
                 sodipodi:nodetypes="cccscsscsc"
                 inkscape:connector-curvature="0"
                 id="path3665-3"
                 d="m 766.22156,293.84905 c -1.68033,0.0452 -3.35591,0.65288 -4.72266,1.84375 -3.123,2.721 -3.44756,7.45903 -0.72656,10.58203 5.646,6.477 13.80767,10.19336 22.38867,10.19336 8.58,0 16.73972,-3.71631 22.38672,-10.19531 2.722,-3.122 2.39644,-7.85908 -0.72656,-10.58008 -3.123,-2.722 -7.86003,-2.39839 -10.58203,0.72461 -2.798,3.21 -6.83513,5.05273 -11.07813,5.05273 -4.244,0 -8.28308,-1.84178 -11.08008,-5.05078 -1.53056,-1.75725 -3.69894,-2.62844 -5.85937,-2.57031 z" />
            </g>
            <g
               id="g4735"
               style="fill:#000000;fill-opacity:1">
              <path
                 d="m 612.20137,380.97071 c 5.79667,0.1571 10.62351,-4.415 10.78061,-10.21167 l 0.39951,-14.74107 c 0.1571,-5.79665 -4.41501,-10.6235 -10.21167,-10.7806 -5.79667,-0.1571 -10.6235,4.41501 -10.7806,10.21169 l -0.39952,14.74105 c -0.1571,5.79665 4.41501,10.6235 10.21167,10.7806 z"
                 id="path3665-3-7"
                 inkscape:connector-curvature="0"
                 sodipodi:nodetypes="sssssss"
                 style="fill:#000000;fill-opacity:1" />
              <path
                 d="m 492.17934,382.09923 c 5.79667,0.1571 10.6235,-4.41501 10.7806,-10.21167 l 0.39951,-14.74107 c 0.1571,-5.79665 -4.415,-10.6235 -10.21167,-10.7806 -5.79666,-0.1571 -10.6235,4.415 -10.7806,10.21168 l -0.39951,14.74106 c -0.1571,5.79666 4.415,10.6235 10.21167,10.7806 z"
                 id="path3665-3-7-5"
                 inkscape:connector-curvature="0"
                 sodipodi:nodetypes="sssssss"
                 style="fill:#000000;fill-opacity:1" />
            </g>
          </g>
        </g>
        <g
           id="g6494"
           transform="translate(527.22635,512.4462)"
           inkscape:export-xdpi="90"
           inkscape:export-ydpi="90">
          <path
             id="path6456"
             d="m -115.48153,-67.651662 c -4.0777,-4.491903 -11.04864,-4.828846 -15.54055,-0.751158 l -20.90171,18.974282 c -4.49191,4.077686 -4.82828,11.049254 -0.75117,15.540538 4.07713,4.491282 11.04864,4.82885 15.54055,0.751163 l 20.9017,-18.97428 c 4.49191,-4.077685 4.8283,-11.049254 0.75118,-15.540545 z m -22.78212,33.272127 c -3.80625,3.455256 -9.71341,3.169729 -13.16866,-0.636517 -3.45526,-3.806246 -3.16973,-9.713406 0.63652,-13.168658 l 20.90233,-18.974849 c 3.80568,-3.455874 9.71284,-3.170354 13.16866,0.636515 3.45582,3.80687 3.16973,9.713406 -0.63652,13.168668 z m 4.00599,-7.723172 c -0.34313,0.311499 -0.87386,0.28644 -1.18593,-0.05732 l -7.33657,-8.081823 c -0.31205,-0.343761 -0.28581,-0.874438 0.0574,-1.185942 0.34313,-0.311496 0.87387,-0.286435 1.18593,0.05732 l 7.33713,8.082447 c 0.3115,0.343142 0.28526,0.873819 -0.0579,1.185316 z m 9.36736,-8.50355 c -0.34314,0.311496 -0.87387,0.286435 -1.18594,-0.05732 l -7.33656,-8.081821 c -0.31206,-0.34376 -0.28581,-0.874445 0.0573,-1.185941 0.34314,-0.311496 0.87388,-0.286435 1.18594,0.05733 l 7.33712,8.082446 c 0.31151,0.343135 0.28526,0.873821 -0.0578,1.185316 z m 1.12333,-14.497294 c 0.30024,-0.272556 0.76513,-0.250081 1.03769,0.05012 0.27256,0.300245 0.25009,0.765137 -0.0501,1.037693 -0.30025,0.272557 -0.76514,0.250098 -1.03769,-0.05012 -0.27257,-0.300254 -0.25009,-0.765137 0.0501,-1.037702 z m 3.962,4.364475 c 0.30025,-0.272558 0.76513,-0.250093 1.03769,0.05016 0.27256,0.300254 0.25009,0.765137 -0.0501,1.037702 -0.30024,0.272559 -0.76513,0.250086 -1.03769,-0.05016 -0.27312,-0.300864 -0.25008,-0.765137 0.0501,-1.037695 z m -5.9823,-2.530463 c 0.30024,-0.272573 0.76513,-0.250098 1.03769,0.05012 0.27256,0.300253 0.25009,0.765145 -0.0501,1.037701 -0.30025,0.272556 -0.76514,0.25009 -1.0377,-0.05012 -0.27256,-0.300245 -0.25009,-0.765137 0.0501,-1.037693 z m 3.962,4.364461 c 0.30024,-0.272558 0.76513,-0.250084 1.03769,0.05016 0.27257,0.300246 0.25009,0.765129 -0.0501,1.037695 -0.30024,0.272558 -0.76513,0.250085 -1.03768,-0.05016 -0.27313,-0.300865 -0.2501,-0.76513 0.0501,-1.037697 z m -22.0215,21.97514 c -0.30026,0.27256 -0.76514,0.250089 -1.0377,-0.05016 -0.27256,-0.300247 -0.25009,-0.765135 0.0501,-1.037696 0.30025,-0.27256 0.76514,-0.25009 1.0377,0.05016 0.27256,0.300248 0.25009,0.765135 -0.0501,1.037696 z m -3.96201,-4.364471 c -0.30025,0.272561 -0.76513,0.250091 -1.0377,-0.05015 -0.27255,-0.300248 -0.25009,-0.765135 0.0501,-1.037696 0.30026,-0.272561 0.76514,-0.250091 1.03771,0.05016 0.27255,0.300248 0.25009,0.765135 -0.0501,1.037696 z m 5.9823,2.530471 c -0.30024,0.272561 -0.76513,0.25009 -1.03769,-0.05016 -0.27257,-0.300247 -0.25009,-0.765136 0.0501,-1.037696 0.30025,-0.272561 0.76514,-0.250091 1.0377,0.05016 0.27256,0.300248 0.25009,0.765135 -0.0501,1.037696 z m -3.962,-4.364471 c -0.30025,0.272561 -0.76514,0.25009 -1.0377,-0.05016 -0.27256,-0.300249 -0.25008,-0.765136 0.0501,-1.037697 0.30025,-0.27256 0.76513,-0.25009 1.0377,0.05016 0.27255,0.300247 0.25009,0.765135 -0.0501,1.037695 z"
             style="fill:#ffb99d;fill-opacity:1"
             inkscape:connector-curvature="0"
             sodipodi:nodetypes="sssssssssscsssssssssssssssssssssssssssssssssssssssssssssssssssssssss" />
          <g
             id="g6458" />
          <g
             id="g6460" />
          <g
             id="g6462" />
          <g
             id="g6464" />
          <g
             id="g6466" />
          <g
             id="g6468" />
          <g
             id="g6470" />
          <g
             id="g6472" />
          <g
             id="g6474" />
          <g
             id="g6476" />
          <g
             id="g6478" />
          <g
             id="g6480" />
          <g
             id="g6482" />
          <g
             id="g6484" />
          <g
             id="g6486" />
        </g>
        <flowRoot
           xml:space="preserve"
           id="flowRoot4232"
           style="font-style:normal;font-weight:normal;font-size:83.03676605px;line-height:125%;font-family:sans-serif;letter-spacing:0px;word-spacing:0px;fill:#404040;fill-opacity:1;stroke:none;stroke-width:1px;stroke-linecap:butt;stroke-linejoin:miter;stroke-opacity:1"
           transform="translate(152.53304,-118.18784)"
           inkscape:export-xdpi="90"
           inkscape:export-ydpi="90"><flowRegion
             id="flowRegion4234"><rect
               id="rect4236"
               width="700.39636"
               height="239.05748"
               x="-101.59585"
               y="778.60449"
               style="fill:#404040;fill-opacity:1" /></flowRegion><flowPara
             id="flowPara4238"
             style="font-style:normal;font-variant:normal;font-weight:normal;font-stretch:normal;font-size:186.8327179px;font-family:'Lobster 1.4';-inkscape-font-specification:'Lobster 1.4, ';fill:#404040;fill-opacity:1">Drunksi </flowPara></flowRoot>      </g>
    </g>
    <rect
       style="opacity:1;fill:#ffffff;fill-opacity:1;filter:url(#filter4582)"
       id="rect4445"
       width="222.85716"
       height="91.428581"
       x="220.76129"
       y="659.85461" />
    <rect
       style="opacity:1;fill:#ffffff;fill-opacity:1;filter:url(#filter4602)"
       id="rect4445-3"
       width="222.85716"
       height="91.428581"
       x="218.90656"
       y="534.53613" />
    <flowRoot
       xml:space="preserve"
       id="flowRoot4232-6"
       style="font-style:normal;font-weight:normal;font-size:18.51392365px;line-height:125%;font-family:sans-serif;letter-spacing:0px;word-spacing:0px;fill:#404040;fill-opacity:1;stroke:none;stroke-width:1px;stroke-linecap:butt;stroke-linejoin:miter;stroke-opacity:1"
       inkscape:export-xdpi="90"
       inkscape:export-ydpi="90"
       transform="translate(-300.00001,112.3622)"><flowRegion
         id="flowRegion4234-7"><rect
           id="rect4236-5"
           width="156.16075"
           height="53.300388"
           x="596.30084"
           y="439.89352"
           style="fill:#404040;fill-opacity:1" /></flowRegion><flowPara
         id="flowPara4238-3"
         style="font-style:normal;font-variant:normal;font-weight:normal;font-stretch:normal;font-size:41.65632629px;font-family:'Lobster 1.4';-inkscape-font-specification:'Lobster 1.4, ';fill:#404040;fill-opacity:1">Play</flowPara></flowRoot>    <flowRoot
       xml:space="preserve"
       id="flowRoot4232-6-5"
       style="font-style:normal;font-weight:normal;font-size:18.51392365px;line-height:125%;font-family:sans-serif;letter-spacing:0px;word-spacing:0px;fill:#404040;fill-opacity:1;stroke:none;stroke-width:1px;stroke-linecap:butt;stroke-linejoin:miter;stroke-opacity:1"
       inkscape:export-xdpi="90"
       inkscape:export-ydpi="90"
       transform="translate(-1225.2997,79.005104)"><flowRegion
         id="flowRegion4234-7-6"><rect
           id="rect4236-5-2"
           width="156.16075"
           height="53.300388"
           x="1534.317"
           y="605.05865"
           style="fill:#404040;fill-opacity:1" /></flowRegion><flowPara
         id="flowPara4238-3-9"
         style="font-style:normal;font-variant:normal;font-weight:normal;font-stretch:normal;font-size:41.65632629px;font-family:'Lobster 1.4';-inkscape-font-specification:'Lobster 1.4, ';fill:#404040;fill-opacity:1">Exit</flowPara></flowRoot>    <g
       id="g4940"
       transform="matrix(0.2617385,0,0,0.2617385,471.5252,464.55518)">
      <path
         style="fill:#b0ced2"
         d="m 1610.1235,1368.786 c -0.6715,-1.7499 1.2796,-4.4873 3.1984,-4.4873 2.6483,0 2.34,-3.7262 -1.0663,-12.8883 -3.6532,-9.8262 -4.1551,-12.5819 -2.4798,-13.6172 2.455,-1.5174 4.9147,0.7767 6.7563,6.3013 1.0457,3.1373 2.2764,5.7042 2.7347,5.7042 0.4583,0 1.689,-2.5669 2.7347,-5.7042 1.225,-3.6748 2.5856,-5.9214 3.8244,-6.3146 2.8288,-0.8978 4.2131,0.4077 3.6132,3.4073 -0.9649,4.8246 -8.7246,23.9082 -10.7881,26.5315 -2.3078,2.934 -7.5589,3.5912 -8.5275,1.0673 z m -235.4362,-1.7373 c -0.044,-0.1375 -0.2336,-2.5866 -0.4219,-5.4424 -0.3991,-6.0531 1.0657,-8.1464 4.4375,-6.3418 3.7682,2.0167 1.6931,12.0342 -2.4928,12.0342 -0.7938,0 -1.4791,-0.1125 -1.5228,-0.25 z m -100.1705,-5.8301 c -3.7384,-2.1774 -6.1648,-10.163 -3.4093,-11.2204 1.7001,-0.6524 2.7677,0.1125 4.9555,3.5505 1.4137,2.2217 2.4904,2.75 5.6044,2.75 4.4647,0 7.0636,-2.2479 5.4876,-4.7464 -0.5477,-0.8683 -3.6766,-2.3125 -6.953,-3.2094 -7.7337,-2.117 -8.2392,-2.4824 -8.9931,-6.5011 -0.9191,-4.8993 0.3624,-9.3689 3.2236,-11.2436 3.19,-2.0902 9.9415,-2.086 13.9759,0.01 3.0805,1.5994 5.4733,5.9695 4.6221,8.4418 -0.7507,2.1804 -4.9382,1.3958 -6.6717,-1.25 -1.9017,-2.9023 -7.5265,-3.4887 -9.592,-1 -1.8934,2.2815 0.1409,3.9895 6.4271,5.3963 6.5078,1.4564 10.1958,4.1102 11.0374,7.9422 1.4894,6.7813 -4.2752,12.1737 -12.9645,12.1274 -2.75,-0.015 -5.7875,-0.4854 -6.75,-1.046 z m 41.65,-2.3199 c -2.8917,-2.8917 -3.4,-4.0951 -3.4,-8.0497 0,-8.1078 4.3267,-13.5503 10.7722,-13.5503 8.011,0 11.861,5.0838 10.7265,14.164 -0.9915,7.9358 -3.9444,10.836 -11.033,10.836 -2.8355,0 -4.4357,-0.77 -7.0657,-3.4 z m 11.4,-3.8 c 2.1145,-2.1145 1.3065,-2.8 -3.3,-2.8 -4.2512,0 -5.8107,1.356 -3.8333,3.3333 1.1048,1.1049 5.8499,0.7501 7.1333,-0.5333 z m -0.044,-10.05 c -0.6136,-1.8687 -5.2409,-2.0759 -6.7142,-0.3006 -1.1279,1.359 -0.7672,1.5506 2.9189,1.5506 2.9168,0 4.08,-0.3831 3.7953,-1.25 z m 85.0698,15.5379 c -4.356,-2.7024 -6.4621,-9.4461 -3.326,-10.6495 1.9783,-0.7592 4.5,0.2572 4.5,1.8136 0,3.9502 9.3463,6.2455 12.0696,2.9642 2.1144,-2.5477 -0.049,-4.5693 -6.8951,-6.4433 -7.897,-2.1617 -10.1745,-4.1748 -10.1745,-8.993 0,-4.6756 2.992,-8.6076 7.4962,-9.8512 7.122,-1.9665 15.5038,2.3832 15.5038,8.0456 0,2.3111 -0.4344,2.8257 -2.385,2.8257 -1.4405,0 -3.0337,-0.99 -4.023,-2.5 -1.9017,-2.9023 -7.5265,-3.4887 -9.592,-1 -1.9425,2.3406 0.3364,4.2204 6.7237,5.5464 7.7546,1.6099 10.4805,4.4976 10.0807,10.6794 -0.264,4.0838 -0.7548,5.0105 -3.7023,6.991 -4.1594,2.7949 -12.2348,3.0783 -16.2761,0.5711 z m 41.6285,-0.7424 c -3.0759,-3.0759 -3.1595,-7.1661 -0.2108,-10.3049 2.0819,-2.2161 2.118,-2.4587 0.5,-3.3641 -2.4195,-1.3541 -2.1783,-3.5328 0.7108,-6.4219 1.9633,-1.9633 3.4737,-2.4546 7.5455,-2.4546 4.0718,0 5.5823,0.4913 7.5455,2.4546 2.1376,2.1376 2.4545,3.3566 2.4545,9.4409 0,3.8426 0.45,7.2646 1,7.6045 1.7222,1.0644 1.091,4.3364 -0.9622,4.988 -1.0792,0.3425 -2.8792,0.132 -4,-0.4678 -1.4202,-0.76 -2.624,-0.7768 -3.9721,-0.055 -3.4022,1.8208 -7.9838,1.208 -10.6111,-1.4193 z m 10.3455,-4.7455 c 2.2916,-2.2915 1.376,-3.5834 -2.044,-2.8839 -3.9625,0.8104 -5.1884,4.0839 -1.5293,4.0839 1.3053,0 2.9133,-0.54 3.5733,-1.2 z m 1.2,-10.3 c 0,-0.9858 -0.9864,-1.5 -2.8776,-1.5 -1.5826,0 -3.4377,0.675 -4.1224,1.5 -1.0723,1.2921 -0.6735,1.5 2.8776,1.5 2.9977,0 4.1224,-0.4092 4.1224,-1.5 z m 30.75,16.7715 -3.75,-0.3922 0,-15.471 c 0,-12.8875 0.2526,-15.568 1.5127,-16.0516 2.2557,-0.8655 4.4873,1.5046 4.4873,4.7657 0,2.751 0.2014,2.8776 4.5769,2.8776 3.7254,0 5.1208,0.5439 7.5,2.9231 5.417,5.4169 3.7429,18.0154 -2.7892,20.9917 -2.35,1.0707 -4.1731,1.1271 -11.5377,0.3567 z m 10.2148,-7.2058 c 2.4354,-4.5505 0.4924,-11.0657 -3.3,-11.0657 -3.3166,0 -4.6648,1.8786 -4.6648,6.5 0,2.255 0.54,4.64 1.2,5.3 1.8371,1.8371 5.6077,1.4279 6.7648,-0.7343 z m 28.3164,4.4155 c -3.4013,-3.4013 -3.504,-3.7236 -3.0755,-9.6487 0.3874,-5.3554 0.8466,-6.49 3.6346,-8.9811 3.632,-3.2452 8.4918,-3.7652 13.0685,-1.3986 3.9569,2.0463 5.4071,6.1708 4.5583,12.9647 -0.8823,7.0614 -4.4238,10.5825 -10.6438,10.5825 -3.2688,0 -4.6832,-0.6599 -7.5421,-3.5188 z m 11.5188,-3.6812 c 2.1145,-2.1145 1.3065,-2.8 -3.3,-2.8 -4.2512,0 -5.8107,1.356 -3.8333,3.3333 1.1048,1.1049 5.8499,0.7501 7.1333,-0.5333 z m -0.05,-10.05 c -0.2292,-0.6875 -1.9167,-1.25 -3.75,-1.25 -1.8333,0 -3.5208,0.5625 -3.75,1.25 -0.2889,0.8667 0.8611,1.25 3.75,1.25 2.8889,0 4.0389,-0.3833 3.75,-1.25 z m 113.75,16.3046 c -4.6559,-1.9056 -7.8771,-8.6668 -5.191,-10.8961 1.9577,-1.6247 3.8635,-0.701 5.8945,2.8572 1.4362,2.516 2.3193,2.9843 5.6275,2.9843 4.6166,0 7.148,-2.2236 5.5029,-4.8338 -0.5775,-0.9164 -3.9145,-2.4164 -7.4156,-3.3333 -7.9339,-2.0778 -10.3415,-4.6411 -9.594,-10.2142 0.6397,-4.7688 3.1866,-7.4935 8.0247,-8.5846 7.5017,-1.6919 16.2149,3.0069 15.455,8.3345 -0.4303,3.0166 -5.3742,3.5609 -6.2848,0.6919 -1.2364,-3.8957 -9.7854,-4.2028 -10.3308,-0.3712 -0.2729,1.9178 0.558,2.4483 6.6987,4.2771 9.9061,2.9501 13.1013,7.5754 9.9743,14.4384 -2.0935,4.5949 -12.2263,7.1609 -18.3614,4.6498 z m 42.7168,-0.6153 c -4.8653,-3.4078 -6.4869,-10.4638 -3.8532,-16.767 2.9713,-7.1114 12.3783,-9.0843 17.7416,-3.7209 2.7027,2.7026 2.9349,3.4822 2.756,9.25 -0.1075,3.4642 -0.5836,7.0814 -1.058,8.0383 -2.1257,4.2873 -11.3345,6.1777 -15.5864,3.1996 z m 9.5832,-5.6393 c 2.1145,-2.1145 1.3065,-2.8 -3.3,-2.8 -2.475,0 -4.5,0.36 -4.5,0.8 0,1.4976 2.394,3.2 4.5,3.2 1.155,0 2.64,-0.54 3.3,-1.2 z m -0.05,-10.05 c -0.2292,-0.6875 -1.6917,-1.25 -3.25,-1.25 -1.5583,0 -3.0208,0.5625 -3.25,1.25 -0.2828,0.8485 0.7611,1.25 3.25,1.25 2.4889,0 3.5328,-0.4015 3.25,-1.25 z m -358.0833,15.5833 c -1.2731,-1.2731 -0.7488,-21.0297 0.5833,-21.9814 0.6875,-0.4911 3.5,-0.8837 6.25,-0.8724 4.3771,0.018 5.0389,0.2936 5.312,2.2128 0.2253,1.5831 -0.5035,2.614 -2.6229,3.7099 -3.3985,1.7574 -4.1566,3.9086 -4.1754,11.8478 -0.013,5.3532 -0.1747,5.75 -2.347,5.75 -1.2834,0 -2.6334,-0.3 -3,-0.6667 z m 219.0422,0.042 c -1.3029,-1.3028 -0.8176,-21.053 0.5411,-22.0236 0.6875,-0.4911 3.5,-0.8837 6.25,-0.8724 4.3771,0.018 5.0389,0.2936 5.312,2.2128 0.2274,1.5978 -0.5144,2.6196 -2.7355,3.7682 -3.3369,1.7255 -3.9293,3.3091 -4.3173,11.5395 -0.2202,4.6723 -0.5664,5.544 -2.3003,5.7922 -1.1227,0.1607 -2.3602,-0.027 -2.75,-0.4167 z m 165.8981,-0.9573 c -0.9616,-2.5059 -0.675,-18.7622 0.3596,-20.3984 1.3174,-2.0833 11.6447,-2.4751 12.4138,-0.471 0.8836,2.3028 -0.202,3.9454 -3.4071,5.1552 -2.878,1.0863 -2.9733,1.3308 -2.9733,7.6274 0,8.0372 -0.5905,9.6686 -3.5,9.6686 -1.2573,0 -2.5592,-0.7118 -2.893,-1.5818 z m 35.9312,0.6437 c -0.8686,-1.4055 -7.5382,-20.0247 -7.5382,-21.0441 0,-1.5325 4.0322,-2.2359 5.5581,-0.9696 0.8041,0.6674 2.1645,3.6296 3.023,6.5826 0.8584,2.9531 1.9414,5.3692 2.4065,5.3692 0.4652,0 1.6975,-2.5553 2.7386,-5.6786 2.1893,-6.5679 4.4174,-8.6063 6.8015,-6.2223 1.4203,1.4204 1.1837,2.553 -2.5553,12.2331 -3.9082,10.1182 -4.2682,10.6678 -6.9874,10.6678 -1.5768,0 -3.1279,-0.4222 -3.4468,-0.9381 z m 33.1707,0.3136 c -0.3899,-0.3898 -0.7089,-5.5357 -0.7089,-11.4352 0,-8.9835 0.2643,-10.8277 1.6268,-11.3506 3.5874,-1.3766 4.4518,1.184 4.1555,12.3096 -0.261,9.8011 -0.4363,10.6227 -2.3234,10.8929 -1.1227,0.1607 -2.3602,-0.027 -2.75,-0.4167 z m 26,0 c -0.3899,-0.3898 -0.7089,-5.5357 -0.7089,-11.4352 0,-11.9379 -0.2881,-11.4976 7.5,-11.4627 4.4332,0.02 5.0366,0.2805 5.323,2.299 0.252,1.7757 -0.3544,2.5127 -2.756,3.3499 -3.4369,1.1981 -3.9288,2.4962 -4.3096,11.3735 -0.2221,5.1768 -0.5374,6.0401 -2.2985,6.2922 -1.1227,0.1607 -2.3602,-0.027 -2.75,-0.4167 z m -26.0422,-25.0422 c -1.2546,-1.2545 -0.6684,-5.3954 0.846,-5.9765 1.9249,-0.7387 4.4873,1.3506 4.4873,3.6587 0,2.2918 -3.7358,3.9154 -5.3333,2.3178 z m -295.4667,-47.5333 c -1.7379,-1.7379 -1.7379,-160.8621 0,-162.6 1.7334,-1.7334 121.8666,-1.7334 123.6,0 1.7367,1.7366 1.6184,18.2079 -0.1412,19.6682 -0.9365,0.7772 -16.5531,1.1914 -51.75,1.3725 l -50.4088,0.2593 0,24.5 0,24.5 45.9473,0.2602 c 35.2322,0.1996 46.1309,0.5494 46.7347,1.5 1.3407,2.1111 0.9759,18.5196 -0.432,19.4308 -0.6875,0.4449 -21.725,1.034 -46.75,1.309 l -45.5,0.5 0,24 0,24 50.9467,0.2593 c 39.2322,0.1996 51.1279,0.5445 51.7347,1.5 1.2866,2.0258 0.9711,18.1882 -0.3814,19.5407 -1.7334,1.7334 -121.8666,1.7334 -123.6,0 z m 156.0441,0.372 c -0.9946,-0.6314 -1.2027,-17.7462 -1,-82.2347 l 0.2559,-81.4373 10.5,0 10.5,0 0.2559,81.4373 c 0.2027,64.4885 0,81.6033 -1,82.2347 -0.6907,0.4386 -5.0809,0.7974 -9.7559,0.7974 -4.675,0 -9.0652,-0.3588 -9.7559,-0.7974 z m 53.0059,0.1657 c -1.961,-0.7913 -1.7714,-119.7896 0.2028,-127.2067 4.8161,-18.0948 18.8787,-32.1495 37.5666,-37.5452 8.4365,-2.4359 23.6832,-3.5576 34.4765,-2.5364 26.9419,2.5489 45.2026,16.3385 50.9729,38.4922 2.1909,8.4113 2.3123,126.5653 0.1319,128.3748 -0.9031,0.7495 -4.715,1.0589 -10.75,0.8725 l -9.3507,-0.2889 -0.5,-35 -0.5,-35 -40.5,0 -40.5,0 -0.2634,34.4492 c -0.199,26.0322 -0.5655,34.6412 -1.5,35.2347 -1.3405,0.8515 -17.4427,0.9785 -19.4866,0.1538 z m 102.25,-106.8377 c 0,-17.5558 -1.2051,-22.186 -7.4345,-28.5636 -6.7167,-6.8766 -13.3949,-9.1159 -28.9649,-9.7126 -13.7973,-0.5288 -20.6885,0.5436 -28.6006,4.4506 -6.4872,3.2034 -10.0714,6.6558 -13.3154,12.8256 -2.3938,4.5529 -2.6624,6.232 -3.0033,18.7773 -0.2059,7.5775 -0.1181,14.4451 0.1952,15.2614 0.4927,1.2841 5.995,1.4488 40.8465,1.2227 l 40.277,-0.2614 0,-14 z m -446.8231,104.6955 c -3.6244,-4.0049 -13.6769,-18.7837 -13.6769,-20.1072 0,-0.7801 2.5875,-4.1656 5.75,-7.5234 3.1625,-3.3577 6.6803,-7.4214 7.8174,-9.0305 l 2.0673,-2.9257 3.0928,4.4457 c 1.7011,2.4451 5.1583,6.4518 7.6827,8.9038 2.5244,2.452 4.5898,5.1945 4.5898,6.0945 0,1.6579 -11.6031,18.5431 -14.2546,20.7436 -1.1452,0.9505 -1.7764,0.8269 -3.0685,-0.6008 z m -59.8846,-52.5427 c -19.6997,-5.5327 -27.2384,-29.2572 -14.1541,-44.5433 7.2853,-8.5111 19.045,-12.138 29.6913,-9.1572 11.3545,3.179 20.0578,14.6294 20.0318,26.3548 -0.041,18.5745 -17.9034,32.3072 -35.569,27.3457 z m 108.7077,0 c -13.4713,-4.4475 -20.4349,-13.6081 -20.478,-26.9388 -0.038,-11.6363 4.9504,-19.6098 15.524,-24.8152 5.8792,-2.8943 7.0586,-3.1262 13.6936,-2.693 8.4572,0.5523 13.5696,2.8394 18.9002,8.4556 4.9657,5.2316 6.9833,9.6011 7.6064,16.4728 0.6816,7.5164 -0.9993,13.3393 -5.6124,19.4429 -6.5575,8.6763 -20.0141,13.2517 -29.6338,10.0757 z m -49.0153,-31.747 c -0.38,-2.2497 -2.4244,-7.5372 -4.543,-11.75 -14.0445,-27.9277 -40.7541,-43.7637 -70.4008,-41.7403 -5.5225,0.377 -11.5963,0.7743 -13.4973,0.883 -3.2569,0.1862 -3.7387,-0.2284 -8.3472,-7.1823 -7.5654,-11.4156 -9.9708,-16.3285 -8.4632,-17.2854 0.6967,-0.4422 49.3184,-0.811 108.0482,-0.8194 94.1291,-0.014 106.8498,0.1629 107.3585,1.4887 0.3377,0.8799 -2.446,6.3178 -6.7085,13.1053 l -7.2857,11.6014 -5.0729,-0.8554 c -2.79,-0.4704 -10.6978,-0.8099 -17.5728,-0.7544 -10.6163,0.086 -13.7056,0.4962 -20.5,2.7244 -19.5091,6.3979 -35.2593,20.4776 -44.3821,39.6747 -1.6989,3.575 -3.5627,8.4125 -4.1419,10.75 -1.3582,5.4815 -3.5788,5.5604 -4.4913,0.1597 z m 471.7894,-55.4744 c -12.3447,-9.7296 1.7777,-28.9225 14.828,-20.1517 4.0528,2.7238 5.4916,7.2715 4.4655,14.1142 -0.5783,3.8561 -1.2874,5.0703 -3.8874,6.6556 -4.66,2.8415 -11.3576,2.5727 -15.4061,-0.6181 z m 10.1433,-2.3016 c 0.2945,-0.4765 -0.3539,-1.6713 -1.441,-2.655 -1.9214,-1.7389 -1.9764,-1.7148 -1.9764,0.8663 0,2.5689 2.2178,3.7297 3.4174,1.7887 z m -8.4851,-7.8837 c -0.058,-4.0732 -0.2182,-4.4385 -1.1244,-2.5637 -0.9613,1.9889 -0.4435,7.3137 0.7112,7.3137 0.2645,0 0.4504,-2.1375 0.4132,-4.75 z m 14.0677,1.0275 c 0,-3.6869 -0.015,-3.7008 -1.5892,-1.4536 -1.6183,2.3104 -1.3094,5.1761 0.5578,5.1761 0.5673,0 1.0314,-1.6751 1.0314,-3.7225 z m -587.5,-54.1192 c -5.8842,-3.5976 -6,-4.0235 -6,-22.062 l 0,-16.5963 3,0 3,0 0.5,14.8414 c 0.4749,14.0956 0.6186,14.9374 2.8608,16.75 1.2984,1.0497 3.8361,1.9086 5.6392,1.9086 1.8031,0 4.3408,-0.8589 5.6392,-1.9086 2.2422,-1.8126 2.3859,-2.6544 2.8608,-16.75 l 0.5,-14.8414 3.5,0 3.5,0 0.2785,13.7914 c 0.3235,16.0186 -1.1135,21.1134 -6.9605,24.6782 -4.41,2.6887 -14.0663,2.7882 -18.318,0.1887 z m 331.5,1.1355 c -3.7839,-1.3832 -9,-8.1694 -9,-11.709 0,-2.3257 3.5924,-3.8733 6,-2.5848 1.1,0.5887 2,1.7295 2,2.5352 0,0.8056 0.9,2.3648 2,3.4648 2.699,2.699 10.9615,2.805 13.345,0.1713 3.7273,-4.1186 1.7828,-6.415 -7.4176,-8.7601 -8.9399,-2.2786 -11.8586,-4.0023 -13.5231,-7.986 -2.2953,-5.4934 0.2375,-12.1544 5.6945,-14.9763 3.2188,-1.6645 11.5497,-1.9132 15.3744,-0.4591 4.1894,1.5928 7.5268,5.8744 7.5268,9.6562 0,3.0536 -0.2664,3.354 -2.9743,3.354 -2.2656,0 -3.3291,-0.686 -4.463,-2.8788 -0.8188,-1.5834 -2.2172,-3.1584 -3.1075,-3.5 -3.2771,-1.2576 -8.1524,-0.6132 -9.8903,1.3071 -2.7639,3.054 -1.2219,5.6403 4.2138,7.0676 10.8793,2.8567 12.3972,3.4527 14.7283,5.7838 5.3566,5.3566 3.5347,14.951 -3.507,18.4687 -3.3904,1.6937 -13.5221,2.3167 -17,1.0454 z m -278.5548,-1.576 c -0.2706,-0.7052 -0.369,-9.5927 -0.2186,-19.75 l 0.2734,-18.4678 3.9765,0 3.9765,0 7.1557,11.3322 c 3.9356,6.2327 7.6587,11.8352 8.2735,12.45 0.8237,0.8237 1.1218,-1.8943 1.1331,-10.3322 0.01,-6.2975 0.3948,-12.0485 0.8585,-12.7801 0.4789,-0.7554 2.0924,-1.1875 3.7347,-1 l 2.8915,0.3301 0,19.5 0,19.5 -3.7494,0.3103 -3.7495,0.3104 -8.2505,-12.7743 -8.2506,-12.7743 -0.5,11.464 c -0.275,6.3051 -0.8641,12.0264 -1.309,12.7139 -1.0595,1.637 -5.6143,1.6135 -6.2458,-0.032 z m 61.1825,-0.2457 c -0.9444,-2.461 -0.7246,-35.771 0.2461,-37.3022 0.4789,-0.7554 2.0924,-1.1875 3.7347,-1 l 2.8915,0.3301 0,19.5 0,19.5 -3.1223,0.3038 c -2.1665,0.2109 -3.3146,-0.1969 -3.75,-1.3317 z m 46.6186,0.2779 c -1.5816,-1.9799 -13.2463,-34.2055 -13.2463,-36.5952 0,-1.7874 0.5846,-2.1548 3.4282,-2.1548 3.8113,0 3.8799,0.1283 10.0171,18.75 1.4954,4.5375 3.095,8.25 3.5547,8.25 0.4597,0 2.0593,-3.7125 3.5547,-8.25 6.1041,-18.5211 6.2251,-18.75 9.9102,-18.75 1.8266,0 3.5381,0.5654 3.8033,1.2564 0.4732,1.2332 -11.058,33.5614 -13.1954,36.9936 -1.2662,2.0334 -6.3425,2.3577 -7.8265,0.5 z m 46.3707,-0.3057 c -0.9184,-2.3932 -0.7168,-35.7387 0.225,-37.2228 0.6113,-0.9634 4.3664,-1.2099 15.2346,-1 l 14.4234,0.2785 0.3131,2.7151 c 0.384,3.3307 -0.7935,3.6876 -13.3131,4.0351 l -9,0.2498 0,4 0,4 10,0.5 10,0.5 0,3 0,3 -10,0.5 -10,0.5 -0.3034,4.7167 -0.3035,4.7168 11.3035,0.2832 11.3034,0.2833 0,3 0,3 -14.633,0.2761 c -12.6848,0.2393 -14.7152,0.062 -15.25,-1.3318 z m 57.8527,0.3374 c -0.2841,-0.7403 -0.3935,-9.6566 -0.2431,-19.8139 l 0.2734,-18.4678 12,-0.2629 c 10.4563,-0.2291 12.4102,-0.011 15.1886,1.698 5.0811,3.1247 6.2771,11.7866 2.2906,16.59 -0.8161,0.9833 -0.7325,2.0688 0.3196,4.1531 0.7835,1.552 1.6855,6.0843 2.0047,10.0718 l 0.5801,7.25 -3.4066,0 c -4.1417,0 -5.477,-2.0388 -5.477,-8.3628 0,-6.2955 -1.6741,-7.6372 -9.5294,-7.6372 l -6.3865,0 -0.292,7.75 -0.2921,7.75 -3.2569,0.3139 c -2.0473,0.1973 -3.4487,-0.1861 -3.7734,-1.0322 z m 22.3303,-22.9817 c 1.7758,-1.7758 1.5106,-7.4668 -0.3818,-8.193 -0.87,-0.3339 -4.47,-0.607 -8,-0.607 l -6.4182,0 0,5 0,5 6.8,0 c 3.9556,0 7.302,-0.502 8,-1.2 z m 95.6697,22.9817 c -0.2841,-0.7403 -0.3935,-9.6566 -0.2431,-19.8139 l 0.2734,-18.4678 3.5,0 3.5,0 0,19.5 0,19.5 -3.2569,0.3139 c -2.0473,0.1973 -3.4487,-0.1861 -3.7734,-1.0322 z m 35.9755,-0.064 c -0.2706,-0.7052 -0.369,-9.5927 -0.2186,-19.75 l 0.2734,-18.4678 10.5549,-0.2819 c 9.6231,-0.2569 10.8568,-0.078 13.9762,2.0238 4.5885,3.0922 7.5946,7.7767 8.3887,13.072 1.3544,9.0318 -2.0433,18.168 -8.3329,22.4065 -2.9815,2.0093 -4.6141,2.2796 -13.7662,2.2796 -7.5232,0 -10.519,-0.3532 -10.8755,-1.2822 z m 21.464,-8.1211 c 5.1436,-5.4751 4.6785,-18.0913 -0.8225,-22.3149 -0.8727,-0.67 -4.1742,-1.2325 -7.3367,-1.25 l -5.75,-0.032 0,13 0,13 5.8257,0 c 4.8586,0 6.2005,-0.399 8.0835,-2.4033 z m 35.548,8.1524 c -0.5456,-1.4218 11.8751,-35.2312 13.7948,-37.5497 0.618,-0.7464 2.5884,-1.1725 4.6245,-1 l 3.5477,0.3006 6.7977,18.5 c 3.7387,10.175 6.5713,19.0912 6.2947,19.8139 -0.6739,1.7607 -6.5687,1.1328 -7.6415,-0.8139 -0.4546,-0.825 -1.4896,-3.1875 -2.2998,-5.25 l -1.4732,-3.75 -6.4171,0 -6.4172,0 -1.9881,5.25 c -1.7601,4.6477 -2.3499,5.286 -5.1408,5.5639 -1.9928,0.1984 -3.3473,-0.1934 -3.6817,-1.0648 z m 20.5428,-17.8831 c 0,-1.993 -2.2926,-8.866 -2.9574,-8.866 -0.3524,0 -1.2448,1.6875 -1.983,3.75 -0.7382,2.0625 -1.5518,4.3125 -1.8079,5 -0.3185,0.855 0.674,1.25 3.1413,1.25 2.0221,0 3.607,-0.4983 3.607,-1.134 z m 39.607,17.5522 c -0.3339,-0.87 -0.607,-9.1582 -0.607,-18.4182 0,-9.26 0.2731,-17.5482 0.607,-18.4182 0.5014,-1.3066 2.4764,-1.5818 11.3521,-1.5818 9.4846,0 11.1437,0.2649 14.143,2.2581 5.4538,3.6243 8.0858,9.8629 7.6962,18.2419 -0.3858,8.2955 -2.9414,13.9597 -7.7832,17.25 -2.9258,1.9883 -4.5606,2.25 -14.056,2.25 -8.8757,0 -10.8507,-0.2752 -11.3521,-1.5818 z m 20.4484,-6.4478 c 3.5304,-1.8894 5.1939,-6.7139 4.7452,-13.7615 -0.354,-5.5584 -0.803,-6.8142 -3.1623,-8.8436 -2.2244,-1.9134 -3.8855,-2.3653 -8.6941,-2.3653 l -5.9442,0 0,13 0,13 5.5657,0 c 3.0612,0 6.4315,-0.4633 7.4897,-1.0296 z"
         id="path4948"
         inkscape:connector-curvature="0" />
      <path
         style="fill:#00bed6"
         d="m 1611.294,1368.3426 c -0.325,-0.5258 0.5106,-1.6778 1.857,-2.56 1.3463,-0.8821 2.7292,-2.3371 3.0731,-3.2333 0.3439,-0.8962 -1.0358,-6.2917 -3.066,-11.99 -2.2125,-6.2102 -3.3274,-10.7245 -2.7829,-11.269 1.6165,-1.6165 3.2457,0.4307 5.6005,7.0372 1.2685,3.5592 2.7411,6.3923 3.2722,6.2958 0.5312,-0.096 1.9138,-3.0215 3.0724,-6.5 1.6337,-4.9045 2.5939,-6.3963 4.2766,-6.6441 1.1935,-0.1758 2.1699,0.065 2.1699,0.5341 0,2.4552 -10.1946,26.9545 -11.6631,28.0283 -2.0384,1.4905 -4.9804,1.643 -5.8097,0.301 z m -235.3313,-5.2939 c -0.01,-1.2375 -0.1688,-3.15 -0.3558,-4.25 -0.246,-1.4467 0.2132,-2 1.6599,-2 2.3713,0 3.1714,3.3771 1.5276,6.4484 -1.4477,2.7051 -2.8121,2.6095 -2.8317,-0.1984 z m -101.492,-3.3461 c -2.4903,-1.3503 -4.7039,-4.8651 -4.7039,-7.469 0,-0.5142 0.9,-0.9349 2,-0.9349 1.1,0 2,0.45 2,1 0,2.4041 4.1163,5 7.9286,5 4.498,0 7.326,-2.2109 6.8746,-5.3746 -0.2372,-1.6626 -1.8082,-2.6134 -7.2145,-4.3664 -3.8012,-1.2325 -7.7387,-2.9898 -8.75,-3.905 -2.744,-2.4833 -2.3667,-7.5533 0.7977,-10.7176 5.3041,-5.3041 18.3636,-2.5049 18.3636,3.9362 0,3.1054 -1.8634,3.0999 -4.4624,-0.013 -4.2483,-5.0887 -14.0774,-2.7356 -11.9316,2.8564 0.3311,0.8627 3.6119,2.4579 7.3367,3.5672 3.7059,1.1036 7.4847,2.8319 8.3976,3.8406 1.8396,2.0327 2.194,7.3095 0.6808,10.137 -2.0566,3.8427 -12.118,5.2623 -17.3172,2.4433 z m 44.4062,0.2006 c -3.3306,-1.846 -5.0331,-5.3534 -5.0747,-10.4545 -0.047,-5.817 4.8833,-11.15 10.3088,-11.15 5.1577,0 8.8556,3.5038 9.024,8.5501 l 0.1318,3.9499 -7.25,0.2938 c -6.1363,0.2487 -7.25,0.5636 -7.25,2.05 0,4.3033 6.0118,5.6152 9.9761,2.177 1.2551,-1.0886 2.674,-1.7371 3.153,-1.441 3.0766,1.9014 -2.5599,7.4411 -7.514,7.3848 -1.7133,-0.02 -4.1906,-0.6316 -5.505,-1.3601 z m 9.8899,-13.9045 c 0,-2.0795 -2.1898,-3.7 -5,-3.7 -2.8102,0 -5,1.6205 -5,3.7 0,0.8933 1.5641,1.3 5,1.3 3.4359,0 5,-0.4067 5,-1.3 z m 84.7751,13.7986 c -4.648,-2.6204 -6.5675,-8.4986 -2.7751,-8.4986 1.1,0 2,0.45 2,1 0,0.55 0.9,1.9 2,3 2.4631,2.4631 9.1436,2.7136 11.4286,0.4286 3.4633,-3.4634 1.4516,-6.0818 -6.4896,-8.4468 -8.1563,-2.429 -9.939,-3.9713 -9.939,-8.5987 0,-5.5317 3.5715,-8.3831 10.5,-8.3831 4.6027,0 6.0248,0.4339 8.0455,2.4546 2.6287,2.6287 3.3078,6.5454 1.1348,6.5454 -0.7258,0 -2.2978,-1.125 -3.4933,-2.5 -3.9079,-4.4944 -12.953,-2.8373 -12.0188,2.202 0.2297,1.2393 2.4808,2.4944 7.2439,4.039 8.6514,2.8055 10.5879,4.4955 10.5879,9.2397 0,5.3103 -3.4617,8.252 -10.2423,8.7038 -3.4519,0.23 -6.1936,-0.1773 -7.9826,-1.1859 z m 41.3992,-0.813 c -4.5114,-4.8023 -1.5505,-10.0568 6.3332,-11.239 5.1838,-0.7773 6.8814,-2.9578 3.9639,-5.0912 -2.5568,-1.8696 -4.1966,-1.6992 -6.2034,0.6446 -2.1776,2.5432 -4.268,2.571 -4.268,0.057 0,-5.0853 10.2319,-6.9157 14.5455,-2.6021 2.1279,2.1279 2.4545,3.3653 2.4545,9.3 0,3.9909 0.5004,7.3458 1.2,8.0454 2.0641,2.0641 -0.608,3.8548 -3.4681,2.3241 -1.6972,-0.9083 -3.044,-0.9559 -5.0854,-0.1798 -4.3034,1.6362 -7.1019,1.2643 -9.4722,-1.2587 z m 10.6257,-2.8856 c 0.66,-0.66 1.2,-2.2554 1.2,-3.5453 0,-2.1602 -0.2959,-2.2935 -3.75,-1.6886 -4.4485,0.779 -6.7727,3.0992 -5.1106,5.1019 1.3763,1.6584 6.0536,1.739 7.6606,0.132 z m 34.3854,4.3357 c -0.7231,-0.4585 -2.4106,-0.6241 -3.75,-0.3681 l -2.4354,0.4656 0,-14.45 c 0,-7.9474 0.2961,-14.746 0.658,-15.1079 1.3168,-1.3168 3.342,1.6526 3.342,4.9 l 0,3.3305 4.7535,-0.563 c 4.2688,-0.5056 5.044,-0.2726 7.6014,2.2848 2.6522,2.6522 2.8198,3.2873 2.4405,9.2449 -0.3484,5.4721 -0.8049,6.7389 -3.1571,8.7622 -2.764,2.3775 -7.008,3.0514 -9.4529,1.501 z m 7.2579,-5.3582 c 1.7818,-2.5439 2.0441,-7.9982 0.5215,-10.8432 -0.7145,-1.3352 -2.0975,-1.9343 -4.4648,-1.9343 -2.3673,0 -3.7503,0.5991 -4.4648,1.9343 -1.5715,2.9363 -1.2558,9.7022 0.5362,11.4943 2.2554,2.2554 6.0563,1.941 7.8719,-0.6511 z m 30.3067,5.1424 c -4.3478,-2.5324 -6.1052,-11.3985 -3.325,-16.7749 4.1029,-7.934 16.5326,-6.2184 18.1697,2.5078 0.8575,4.5713 -0.3021,5.3122 -8.3447,5.3319 -5.3462,0.013 -6.25,0.2756 -6.25,1.8153 0,4.3747 5.4279,5.5818 9.7636,2.1713 3.0768,-2.4202 4.9979,-1.2627 3.2682,1.9692 -1.9489,3.6417 -9.3098,5.2929 -13.2818,2.9794 z m 10.25,-14.2199 c 0,-2.0795 -2.1898,-3.7 -5,-3.7 -2.8102,0 -5,1.6205 -5,3.7 0,0.8933 1.5641,1.3 5,1.3 3.4359,0 5,-0.4067 5,-1.3 z m 111.826,13.5879 c -2.858,-1.7731 -5.2214,-5.8391 -4.2797,-7.3628 1.0225,-1.6545 3.3556,-0.9778 4.5682,1.3249 1.6224,3.0807 2.8053,3.7169 6.9444,3.7347 4.6369,0.02 7.2287,-1.9052 6.7861,-5.0407 -0.2905,-2.0578 -1.451,-2.7992 -7.345,-4.6921 -10.6881,-3.4325 -13.3809,-8.5248 -7.5769,-14.3288 2.4745,-2.4746 3.7139,-2.9231 8.0769,-2.9231 4.363,0 5.6024,0.4485 8.0769,2.9231 3.2966,3.2966 3.6565,4.8582 1.3258,5.7526 -1.0265,0.3939 -2.368,-0.3535 -3.7536,-2.0912 -3.5153,-4.4085 -11.6491,-3.4201 -11.6491,1.4155 0,2.4705 1.7752,3.6685 7.5133,5.0701 6.801,1.6612 8.4174,2.6174 9.5759,5.6644 1.5235,4.0072 0.1463,8.151 -3.4346,10.3345 -3.9073,2.3825 -11.1683,2.4897 -14.8286,0.2189 z m 43.2847,-0.8482 c -7.6626,-6.4477 -3.1439,-20.4397 6.6011,-20.4397 4.8849,0 9.5375,4.7216 9.1025,9.2374 l -0.3143,3.2626 -7.25,0.2938 c -7.3753,0.2989 -8.0814,0.7842 -6.2148,4.2719 1.4136,2.6415 7.0503,2.6023 9.4648,-0.066 2.2815,-2.521 3.5,-2.5463 3.5,-0.073 0,2.7457 -4.6887,6.0726 -8.5581,6.0726 -2.0694,0 -4.4164,-0.9491 -6.3312,-2.5603 z m 11.1875,-12.0712 c 1.5732,-1.5732 -1.497,-4.3685 -4.7982,-4.3685 -3.0657,0 -5.5,1.9626 -5.5,4.4343 0,0.7785 9.5146,0.7177 10.2982,-0.066 z m -358.871,12.3024 c -0.2805,-0.7311 -0.3789,-5.3436 -0.2186,-10.25 l 0.2914,-8.9209 3,-0.176 c 1.65,-0.097 3.8516,-0.3219 4.8924,-0.5 3.1019,-0.5311 2.9626,1.9411 -0.2015,3.5773 -3.4003,1.7583 -4.1584,3.9088 -4.1772,11.8487 -0.011,4.4909 -0.349,5.75 -1.5451,5.75 -0.8422,0 -1.7609,-0.5981 -2.0414,-1.3291 z m 219,0 c -0.2805,-0.7311 -0.3789,-5.3436 -0.2186,-10.25 0.2858,-8.7501 0.3393,-8.9222 2.7914,-8.9895 1.375,-0.038 3.3178,-0.4349 4.3172,-0.8828 2.744,-1.2294 4.7881,1.2957 2.2706,2.805 -4.8721,2.9208 -5.5878,4.4126 -5.5878,11.6464 0,5.6193 -0.302,7 -1.5314,7 -0.8422,0 -1.7609,-0.5981 -2.0414,-1.3291 z m 166.5728,-9.1868 0,-10.5159 2.75,0.102 c 1.5125,0.056 3.7625,-0.2143 5,-0.6008 1.846,-0.5765 2.25,-0.3226 2.25,1.414 0,1.1641 -0.6053,2.1166 -1.345,2.1166 -2.8637,0 -4.655,3.5583 -4.655,9.247 0,6.5043 -0.6697,8.753 -2.607,8.753 -1.1024,0 -1.393,-2.1941 -1.393,-10.5159 z m 34.5144,7.2047 c -5.2263,-12.5083 -6.3742,-16.5602 -5.012,-17.6908 1.7144,-1.4228 3.5522,1.2737 5.9647,8.752 0.9315,2.8875 2.0708,5.25 2.5317,5.25 0.461,0 1.8002,-2.8909 2.976,-6.4243 2.3624,-7.099 4.5757,-9.9106 5.6329,-7.1556 0.3473,0.9049 -0.9298,5.7931 -2.838,10.8626 -2.7674,7.3524 -3.9086,9.2825 -5.6403,9.5396 -1.6689,0.2477 -2.505,-0.4771 -3.615,-3.1335 z m 33.4856,-7.1888 c 0,-9.6014 0.1718,-10.6136 1.75,-10.3096 1.5272,0.2941 1.75,1.6069 1.75,10.3096 0,8.7027 -0.2228,10.0155 -1.75,10.3096 -1.5782,0.304 -1.75,-0.7082 -1.75,-10.3096 z m 26.6875,9.8542 c -0.3781,-0.3782 -0.6875,-5.1197 -0.6875,-10.5367 l 0,-9.8493 2.75,0.041 c 1.5125,0.023 3.8295,-0.083 5.1488,-0.2341 3.5622,-0.409 3.6736,1.8772 0.1795,3.6841 -3.3309,1.7225 -3.9293,3.3105 -4.3191,11.4619 -0.2401,5.0225 -1.411,7.0934 -3.0717,5.4327 z m -26,-25 c -1.4155,-1.4155 -0.6145,-3.3542 1.3858,-3.3542 1.398,0 1.968,0.5431 1.75,1.6671 -0.3569,1.8405 -2.064,2.7589 -3.1358,1.6871 z m -295.4875,-47.5542 c -0.913,-0.913 -1.2,-20.0263 -1.2,-79.9182 0,-43.295 0.2731,-79.43 0.607,-80.3 0.5443,-1.4184 6.8866,-1.5818 61.393,-1.5818 54.5064,0 60.8487,0.1634 61.393,1.5818 1.2067,3.1446 0.655,16.1335 -0.7342,17.2864 -0.9365,0.7772 -16.5531,1.1914 -51.75,1.3725 l -50.4088,0.2593 -0.2681,24.3758 c -0.1885,17.1428 0.07,24.7835 0.8725,25.75 0.9366,1.1286 9.2319,1.3742 46.4111,1.3742 51.4099,0 46.4845,-1.0066 46.4845,9.5 0,10.5066 4.9254,9.5 -46.4845,9.5 -37.1792,0 -45.4745,0.2456 -46.4111,1.3742 -0.8021,0.9665 -1.061,8.6072 -0.8725,25.75 l 0.2681,24.3758 51.5,0.5 51.5,0.5 0.292,8.3469 c 0.1852,5.2937 -0.1339,8.8602 -0.8724,9.75 -0.9755,1.1754 -10.8474,1.4031 -60.842,1.4031 -45.0826,0 -59.9711,-0.2935 -60.8776,-1.2 z m 156.044,0.372 c -0.9945,-0.6314 -1.2027,-17.5463 -1,-81.2347 l 0.256,-80.4373 9.5,0 9.5,0 0.256,80.4373 c 0.2027,63.6884 -0.01,80.6033 -1,81.2347 -0.6908,0.4385 -4.631,0.7974 -8.756,0.7974 -4.125,0 -8.0652,-0.3589 -8.756,-0.7974 z m 52.4575,0.1962 c -0.3858,-0.3858 -0.7015,-27.532 -0.7015,-60.3248 0,-65.5227 0.01,-65.6546 6.1462,-77.1663 6.42,-12.0452 16.1255,-19.8894 30.3538,-24.5326 10.7526,-3.509 31.924,-4.4275 44.598,-1.9347 22.4883,4.4231 38.1715,19.0582 41.8182,39.0239 0.6987,3.8252 1.0838,26.7897 1.0838,64.6275 0,49.1505 -0.2281,58.8833 -1.4031,59.8584 -0.8898,0.7385 -4.4563,1.0576 -9.75,0.8724 l -8.3469,-0.292 -0.5,-35 -0.5,-35 -41.5,0 -41.5,0 -0.5,35 -0.5,35 -9.0485,0.2849 c -4.9766,0.1566 -9.3641,-0.031 -9.75,-0.4167 z m 102.7985,-106.8682 c 0,-15.6022 -0.072,-16.1457 -2.8776,-21.8606 -4.7595,-9.6931 -13.9273,-14.8614 -29.4887,-16.6243 -15.4276,-1.7476 -31.4341,1.4687 -39.5984,7.9568 -9.3522,7.4323 -11.5353,13.4641 -11.5353,31.8722 0,7.6024 0.3049,14.1275 0.6776,14.5002 0.3727,0.3727 19.1602,0.5602 41.75,0.4167 l 41.0724,-0.261 0,-16 z m -452.9364,96.3642 c -3.61,-5.0464 -6.5636,-9.7697 -6.5636,-10.4962 0,-0.7265 2.479,-3.919 5.5089,-7.0945 3.0299,-3.1754 5.7602,-6.561 6.0674,-7.5235 0.5728,-1.7948 3.4237,-2.485 3.4237,-0.8288 0,0.5067 2.9402,4.1251 6.5337,8.0409 4.0371,4.3992 6.2514,7.5817 5.7949,8.3288 -2.0058,3.2821 -12.6319,17.7786 -13.3635,18.2307 -0.4608,0.2848 -3.7915,-3.6111 -7.4015,-8.6574 z m -52.8291,-43.9414 c -13.7081,-3.2691 -22.9666,-15.8719 -21.3969,-29.1257 0.7099,-5.9939 5.0717,-14.2448 9.1918,-17.3873 6.2681,-4.7809 12.2667,-6.6933 19.391,-6.1818 10.7118,0.769 18.6917,6.2409 23.0011,15.772 2.6687,5.9025 2.7486,15.9278 0.1721,21.6011 -5.0528,11.1261 -18.8193,18.0738 -30.3591,15.3217 z m 108.5919,0.043 c -12.3001,-2.4636 -20.3345,-11.9848 -21.1311,-25.0415 -0.3184,-5.2184 0.062,-7.651 1.8411,-11.7877 4.4039,-10.2372 15.4365,-16.7949 26.8121,-15.937 23.6117,1.7808 33.6793,30.3456 16.2462,46.0954 -6.6493,6.0072 -15.1582,8.3954 -23.7683,6.6708 z m -51.2735,-37.0414 c -9.639,-26.4358 -33.5524,-45.3773 -61.8738,-49.0094 -8.507,-1.091 -21.4205,-0.2951 -26.4354,1.6293 -1.3053,0.501 -3.1475,-1.6169 -8.2613,-9.4971 -3.6197,-5.578 -6.8322,-10.7957 -7.1388,-11.5948 -0.4855,-1.2649 13.2335,-1.4529 106.0494,-1.4529 84.6522,0 106.5942,0.2574 106.5446,1.25 -0.097,1.9467 -13.3575,21.2709 -14.4658,21.0809 -21.9422,-3.7615 -36.9555,-1.8628 -53.554,6.7727 -15.384,8.0036 -31.31,26.3522 -35.9308,41.3964 -0.6757,2.2 -1.556,4.3593 -1.9562,4.7984 -0.4001,0.4391 -1.7402,-1.979 -2.9779,-5.3735 z m 475.3352,-48.905 c -3.7192,-1.5027 -6.3881,-5.922 -6.3881,-10.5778 0,-10.8308 13.8709,-14.7782 20.8321,-5.9284 6.8976,8.7688 -3.6792,20.8557 -14.444,16.5062 z m 10.2352,-3.0199 c 5.1057,-3.7189 5.3469,-9.2787 0.6183,-14.25 -3.5673,-3.7504 -8.0185,-3.6949 -12.1358,0.1512 -5.2831,4.9351 -3.68,12.6925 3.2225,15.5948 3.1865,1.3398 4.8016,1.0485 8.295,-1.496 z m -9.6233,-7.5 0,-6.5 3.8776,0 c 5.1032,0 6.7997,1.9506 5.1533,5.9254 -0.6668,1.6099 -0.8932,3.9728 -0.5029,5.2509 0.6723,2.2016 0.5475,2.1711 -2.3752,-0.5808 l -3.0848,-2.9045 -1.0092,2.6545 c -1.5669,4.121 -2.0588,3.2022 -2.0588,-3.8455 z m 6.7503,-2.2495 c 0.5468,-1.6421 -2.5865,-2.8143 -3.9304,-1.4704 -0.5751,0.5751 -0.7279,1.5598 -0.3395,2.1881 0.8835,1.4297 3.7133,0.954 4.2699,-0.7177 z m -581.3016,-51.7465 c -5.7926,-2.964 -6.8657,-6.3251 -7.2896,-22.8311 l -0.3808,-14.8271 2.8608,0.3271 2.8609,0.3271 0.5234,14 c 0.5478,14.6518 1.0432,16.9301 4.0285,18.5278 2.3394,1.252 8.5568,1.252 10.8962,0 2.9853,-1.5977 3.4807,-3.876 4.0285,-18.5278 l 0.5234,-14 2.5,0 2.5,0 0.281,12.278 c 0.3268,14.2808 -0.6084,18.7244 -4.7824,22.7233 -2.5673,2.4597 -3.9907,2.9567 -9.2659,3.2351 -4.2397,0.2237 -7.2084,-0.1704 -9.284,-1.2324 z m 328.7411,-0.5296 c -3.2929,-2.0077 -6.7898,-8.1945 -5.6626,-10.0184 1.1111,-1.7979 4.5131,-0.98 5.3828,1.294 1.9376,5.0665 7.3267,7.3518 13.3892,5.6778 4.1199,-1.1375 6.1558,-3.9787 5.2986,-7.3944 -0.6245,-2.4878 -3.019,-3.674 -11.9648,-5.927 -7.8329,-1.9728 -10.633,-4.6759 -10.633,-10.2649 0,-3.311 0.6511,-5.0387 2.8094,-7.4542 6.6974,-7.4957 24.1906,-3.3395 24.1906,5.7476 0,3.5672 -3.2882,2.9871 -6.4322,-1.1349 -2.3458,-3.0755 -3.2091,-3.5 -7.1187,-3.5 -4.9036,0 -8.4491,2.5081 -8.4491,5.9769 0,2.5739 3.1872,4.5004 10,6.0447 3.025,0.6857 6.773,1.8913 8.3288,2.679 5.2156,2.6407 6.7213,11.1049 2.7906,15.6874 -4.1409,4.8278 -15.9658,6.2224 -21.9296,2.5864 z m -275.7457,-0.2595 c -0.2713,-0.7069 -0.3696,-9.1444 -0.2186,-18.75 l 0.2745,-17.4649 3,-0.2925 c 2.8517,-0.2781 3.4202,0.3767 11.5,13.2447 4.675,7.4454 8.8375,13.5396 9.25,13.5425 0.4125,0 0.7569,-5.5072 0.7653,-12.2447 0.016,-12.9406 0.5671,-15.1697 3.6045,-14.5847 1.7594,0.3388 1.8802,1.5499 1.8802,18.8484 l 0,18.4863 -3.0052,0.2951 c -2.8585,0.2807 -3.42,-0.3648 -11.5,-13.2204 -4.6722,-7.4336 -8.9448,-13.3795 -9.4948,-13.2133 -0.5818,0.1759 -1.1167,5.8094 -1.279,13.4705 -0.2631,12.4137 -0.3938,13.1681 -2.2814,13.1681 -1.1013,0 -2.2243,-0.5783 -2.4955,-1.2851 z m 61.1832,-0.2438 c -0.9496,-2.4746 -0.7211,-33.7748 0.2578,-35.3195 0.47,-0.7416 1.7006,-1.1854 2.7347,-0.9863 1.7594,0.3388 1.8802,1.5499 1.8802,18.8484 0,18.0808 -0.047,18.4929 -2.1227,18.7892 -1.252,0.1786 -2.38,-0.3677 -2.75,-1.3318 z m 45.889,-0.2211 c -3.8798,-9.7318 -12.5163,-33.8575 -12.5163,-34.9637 0,-0.9461 0.8769,-1.3137 2.6307,-1.1027 2.4196,0.291 3.0243,1.4358 7.538,14.2711 2.699,7.6751 5.1152,14.1626 5.3693,14.4166 0.9205,0.9205 1.77,-0.9977 6.4526,-14.5687 4.3825,-12.7014 4.9718,-13.8278 7.386,-14.119 3.5593,-0.4293 3.4408,0.5039 -1.9075,15.0193 -8.4783,23.0104 -8.3709,22.7971 -11.4782,22.7971 -1.7122,0 -3.0444,-0.671 -3.4746,-1.75 z m 47.4837,-17.2782 0,-19.0282 13.75,0.2782 c 12.9906,0.2628 13.75,0.3887 13.75,2.2782 0,1.8485 -0.8333,2.0379 -11,2.5 l -11,0.5 0,5 0,5 10,0.5 c 9.1667,0.4583 10,0.6667 10,2.5 0,1.8333 -0.8333,2.0417 -10,2.5 l -10,0.5 0,5.5 0,5.5 11,0.5 c 10.4708,0.4759 11.0154,0.6082 11.3196,2.75 0.3184,2.2419 0.2686,2.25 -13.75,2.25 l -14.0696,0 0,-19.0282 z m 57.471,17.8132 c -0.286,-0.7454 -0.3965,-9.2145 -0.2455,-18.8201 l 0.2745,-17.4649 12.3388,0 c 12.2803,0 12.3502,0.013 14.75,2.8058 2.8746,3.3449 3.2449,9.4923 0.7968,13.2284 -1.449,2.2115 -1.4614,2.797 -0.121,5.7149 0.8214,1.788 1.7302,6.0634 2.0196,9.5009 l 0.5261,6.25 -2.7885,0 c -3.1455,0 -3.9855,-1.8013 -4.0081,-8.595 -0.02,-6.1203 -2.1656,-7.5718 -10.6459,-7.2034 l -6.8678,0.2984 -0.5,7.5 c -0.4562,6.8431 -0.6975,7.528 -2.7545,7.8201 -1.2399,0.1761 -2.4885,-0.2897 -2.7745,-1.0351 z m 21.4797,-20.7586 c 2.661,-1.4242 3.4513,-5.764 1.5719,-8.6323 -1.4378,-2.1943 -2.2345,-2.3941 -9.5456,-2.3941 l -7.977,0 0,6 0,6 7.0657,0 c 3.8862,0 7.8844,-0.4381 8.885,-0.9736 z m 96.5203,20.7586 c -0.286,-0.7454 -0.3965,-9.2145 -0.2455,-18.8201 l 0.2745,-17.4649 2.5,0 2.5,0 0,18.5 c 0,18.4347 -0.01,18.5011 -2.2545,18.8201 -1.2399,0.1761 -2.4885,-0.2897 -2.7745,-1.0351 z m 35.529,-17.8735 0,-19.0885 10.9303,0.3385 c 9.1373,0.283 11.3815,0.6759 13.6813,2.3952 9.6774,7.2346 8.6873,28.0624 -1.596,33.5753 -2.7207,1.4586 -5.6247,1.868 -13.25,1.868 l -9.7656,0 0,-19.0885 z m 21.2245,12.1265 c 5.6622,-4.4538 6.1053,-17.8621 0.7668,-23.2006 -2.5318,-2.5318 -3.5343,-2.8374 -9.3074,-2.8374 -4.9772,0 -6.61,0.3649 -7.0769,1.5818 -0.7898,2.0582 -0.7898,22.7782 0,24.8364 0.9498,2.4752 12.34,2.1979 15.6175,-0.3802 z m 36.3887,6.1452 c -0.3165,-0.5122 0.4715,-3.5754 1.7512,-6.8072 1.2797,-3.2318 4.4653,-11.4137 7.0791,-18.1821 l 4.7524,-12.306 3.1521,0.306 c 2.9874,0.2901 3.3273,0.7762 6.507,9.3061 9.8343,26.381 10.1851,27.5474 8.4811,28.2013 -2.4817,0.9523 -4.437,-0.8446 -6.2389,-5.7333 l -1.6468,-4.468 -6.8761,-0.2991 c -3.9363,-0.1713 -7.3304,0.1552 -7.9387,0.7635 -0.5845,0.5845 -1.7651,2.9691 -2.6235,5.2991 -1.5199,4.1252 -4.9669,6.2367 -6.3989,3.9197 z m 20.8413,-16.1096 c 0.835,-1.351 -3.4526,-12.2409 -4.6609,-11.8381 -1.0611,0.3537 -4.7913,9.3156 -4.7928,11.5145 -9e-4,1.4759 8.5604,1.769 9.4537,0.3236 z m 39.1525,15.3446 c -0.934,-2.4338 -0.689,-33.7405 0.2759,-35.263 0.65,-1.0255 3.3622,-1.263 11.4215,-1 10.1558,0.3313 10.6938,0.4622 13.7556,3.3448 4.2851,4.0345 5.94,8.2849 5.94,15.256 0,7.1857 -3.0627,13.7727 -7.8979,16.9859 -2.9451,1.9572 -4.6965,2.2581 -13.143,2.2581 -7.9638,0 -9.8561,-0.2891 -10.3521,-1.5818 z m 21.4329,-5.4581 c 6.4439,-6.4439 4.8798,-23.6872 -2.3123,-25.4923 -1.284,-0.3223 -4.7854,-0.4469 -7.781,-0.2769 l -5.4466,0.3091 -0.2823,12.4445 c -0.1553,6.8445 -0.057,13.032 0.2186,13.75 0.3413,0.8896 2.5817,1.3055 7.0323,1.3055 5.2407,0 6.9345,-0.4031 8.5713,-2.0399 z"
         id="path4946"
         inkscape:connector-curvature="0" />
      <path
         style="fill:#649399"
         d="m 1611.294,1368.3426 c -0.325,-0.5258 0.5106,-1.6778 1.857,-2.56 1.3463,-0.8821 2.7292,-2.3371 3.0731,-3.2333 0.3439,-0.8962 -1.0358,-6.2917 -3.066,-11.99 -2.2125,-6.2102 -3.3274,-10.7245 -2.7829,-11.269 1.6165,-1.6165 3.2457,0.4307 5.6005,7.0372 1.2685,3.5592 2.7411,6.3923 3.2722,6.2958 0.5312,-0.096 1.9138,-3.0215 3.0724,-6.5 1.6337,-4.9045 2.5939,-6.3963 4.2766,-6.6441 1.1935,-0.1758 2.1699,0.065 2.1699,0.5341 0,2.4552 -10.1946,26.9545 -11.6631,28.0283 -2.0384,1.4905 -4.9804,1.643 -5.8097,0.301 z m -235.3313,-5.2939 c -0.01,-1.2375 -0.1688,-3.15 -0.3558,-4.25 -0.246,-1.4467 0.2132,-2 1.6599,-2 2.3713,0 3.1714,3.3771 1.5276,6.4484 -1.4477,2.7051 -2.8121,2.6095 -2.8317,-0.1984 z m -101.492,-3.3461 c -2.4903,-1.3503 -4.7039,-4.8651 -4.7039,-7.469 0,-0.5142 0.9,-0.9349 2,-0.9349 1.1,0 2,0.45 2,1 0,2.4041 4.1163,5 7.9286,5 4.498,0 7.326,-2.2109 6.8746,-5.3746 -0.2372,-1.6626 -1.8082,-2.6134 -7.2145,-4.3664 -3.8012,-1.2325 -7.7387,-2.9898 -8.75,-3.905 -2.744,-2.4833 -2.3667,-7.5533 0.7977,-10.7176 5.3041,-5.3041 18.3636,-2.5049 18.3636,3.9362 0,3.1054 -1.8634,3.0999 -4.4624,-0.013 -4.2483,-5.0887 -14.0774,-2.7356 -11.9316,2.8564 0.3311,0.8627 3.6119,2.4579 7.3367,3.5672 3.7059,1.1036 7.4847,2.8319 8.3976,3.8406 1.8396,2.0327 2.194,7.3095 0.6808,10.137 -2.0566,3.8427 -12.118,5.2623 -17.3172,2.4433 z m 44.4062,0.2006 c -3.3306,-1.846 -5.0331,-5.3534 -5.0747,-10.4545 -0.047,-5.817 4.8833,-11.15 10.3088,-11.15 5.1577,0 8.8556,3.5038 9.024,8.5501 l 0.1318,3.9499 -7.25,0.2938 c -6.1363,0.2487 -7.25,0.5636 -7.25,2.05 0,4.3033 6.0118,5.6152 9.9761,2.177 1.2551,-1.0886 2.674,-1.7371 3.153,-1.441 3.0766,1.9014 -2.5599,7.4411 -7.514,7.3848 -1.7133,-0.02 -4.1906,-0.6316 -5.505,-1.3601 z m 9.8899,-13.9045 c 0,-2.0795 -2.1898,-3.7 -5,-3.7 -2.8102,0 -5,1.6205 -5,3.7 0,0.8933 1.5641,1.3 5,1.3 3.4359,0 5,-0.4067 5,-1.3 z m 84.7751,13.7986 c -4.648,-2.6204 -6.5675,-8.4986 -2.7751,-8.4986 1.1,0 2,0.45 2,1 0,0.55 0.9,1.9 2,3 2.4631,2.4631 9.1436,2.7136 11.4286,0.4286 3.4633,-3.4634 1.4516,-6.0818 -6.4896,-8.4468 -8.1563,-2.429 -9.939,-3.9713 -9.939,-8.5987 0,-5.5317 3.5715,-8.3831 10.5,-8.3831 4.6027,0 6.0248,0.4339 8.0455,2.4546 2.6287,2.6287 3.3078,6.5454 1.1348,6.5454 -0.7258,0 -2.2978,-1.125 -3.4933,-2.5 -3.9079,-4.4944 -12.953,-2.8373 -12.0188,2.202 0.2297,1.2393 2.4808,2.4944 7.2439,4.039 8.6514,2.8055 10.5879,4.4955 10.5879,9.2397 0,5.3103 -3.4617,8.252 -10.2423,8.7038 -3.4519,0.23 -6.1936,-0.1773 -7.9826,-1.1859 z m 41.3992,-0.813 c -4.5114,-4.8023 -1.5505,-10.0568 6.3332,-11.239 5.1838,-0.7773 6.8814,-2.9578 3.9639,-5.0912 -2.5568,-1.8696 -4.1966,-1.6992 -6.2034,0.6446 -2.1776,2.5432 -4.268,2.571 -4.268,0.057 0,-5.0853 10.2319,-6.9157 14.5455,-2.6021 2.1279,2.1279 2.4545,3.3653 2.4545,9.3 0,3.9909 0.5004,7.3458 1.2,8.0454 2.0641,2.0641 -0.608,3.8548 -3.4681,2.3241 -1.6972,-0.9083 -3.044,-0.9559 -5.0854,-0.1798 -4.3034,1.6362 -7.1019,1.2643 -9.4722,-1.2587 z m 10.6257,-2.8856 c 0.66,-0.66 1.2,-2.2554 1.2,-3.5453 0,-2.1602 -0.2959,-2.2935 -3.75,-1.6886 -4.4485,0.779 -6.7727,3.0992 -5.1106,5.1019 1.3763,1.6584 6.0536,1.739 7.6606,0.132 z m 34.3854,4.3357 c -0.7231,-0.4585 -2.4106,-0.6241 -3.75,-0.3681 l -2.4354,0.4656 0,-14.45 c 0,-7.9474 0.2961,-14.746 0.658,-15.1079 1.3168,-1.3168 3.342,1.6526 3.342,4.9 l 0,3.3305 4.7535,-0.563 c 4.2688,-0.5056 5.044,-0.2726 7.6014,2.2848 2.6522,2.6522 2.8198,3.2873 2.4405,9.2449 -0.3484,5.4721 -0.8049,6.7389 -3.1571,8.7622 -2.764,2.3775 -7.008,3.0514 -9.4529,1.501 z m 7.2579,-5.3582 c 1.7818,-2.5439 2.0441,-7.9982 0.5215,-10.8432 -0.7145,-1.3352 -2.0975,-1.9343 -4.4648,-1.9343 -2.3673,0 -3.7503,0.5991 -4.4648,1.9343 -1.5715,2.9363 -1.2558,9.7022 0.5362,11.4943 2.2554,2.2554 6.0563,1.941 7.8719,-0.6511 z m 30.3067,5.1424 c -4.3478,-2.5324 -6.1052,-11.3985 -3.325,-16.7749 4.1029,-7.934 16.5326,-6.2184 18.1697,2.5078 0.8575,4.5713 -0.3021,5.3122 -8.3447,5.3319 -5.3462,0.013 -6.25,0.2756 -6.25,1.8153 0,4.3747 5.4279,5.5818 9.7636,2.1713 3.0768,-2.4202 4.9979,-1.2627 3.2682,1.9692 -1.9489,3.6417 -9.3098,5.2929 -13.2818,2.9794 z m 10.25,-14.2199 c 0,-2.0795 -2.1898,-3.7 -5,-3.7 -2.8102,0 -5,1.6205 -5,3.7 0,0.8933 1.5641,1.3 5,1.3 3.4359,0 5,-0.4067 5,-1.3 z m 111.826,13.5879 c -2.858,-1.7731 -5.2214,-5.8391 -4.2797,-7.3628 1.0225,-1.6545 3.3556,-0.9778 4.5682,1.3249 1.6224,3.0807 2.8053,3.7169 6.9444,3.7347 4.6369,0.02 7.2287,-1.9052 6.7861,-5.0407 -0.2905,-2.0578 -1.451,-2.7992 -7.345,-4.6921 -10.6881,-3.4325 -13.3809,-8.5248 -7.5769,-14.3288 2.4745,-2.4746 3.7139,-2.9231 8.0769,-2.9231 4.363,0 5.6024,0.4485 8.0769,2.9231 3.2966,3.2966 3.6565,4.8582 1.3258,5.7526 -1.0265,0.3939 -2.368,-0.3535 -3.7536,-2.0912 -3.5153,-4.4085 -11.6491,-3.4201 -11.6491,1.4155 0,2.4705 1.7752,3.6685 7.5133,5.0701 6.801,1.6612 8.4174,2.6174 9.5759,5.6644 1.5235,4.0072 0.1463,8.151 -3.4346,10.3345 -3.9073,2.3825 -11.1683,2.4897 -14.8286,0.2189 z m 43.2847,-0.8482 c -7.6626,-6.4477 -3.1439,-20.4397 6.6011,-20.4397 4.8849,0 9.5375,4.7216 9.1025,9.2374 l -0.3143,3.2626 -7.25,0.2938 c -7.3753,0.2989 -8.0814,0.7842 -6.2148,4.2719 1.4136,2.6415 7.0503,2.6023 9.4648,-0.066 2.2815,-2.521 3.5,-2.5463 3.5,-0.073 0,2.7457 -4.6887,6.0726 -8.5581,6.0726 -2.0694,0 -4.4164,-0.9491 -6.3312,-2.5603 z m 11.1875,-12.0712 c 1.5732,-1.5732 -1.497,-4.3685 -4.7982,-4.3685 -3.0657,0 -5.5,1.9626 -5.5,4.4343 0,0.7785 9.5146,0.7177 10.2982,-0.066 z m -358.871,12.3024 c -0.2805,-0.7311 -0.3789,-5.3436 -0.2186,-10.25 l 0.2914,-8.9209 3,-0.176 c 1.65,-0.097 3.8516,-0.3219 4.8924,-0.5 3.1019,-0.5311 2.9626,1.9411 -0.2015,3.5773 -3.4003,1.7583 -4.1584,3.9088 -4.1772,11.8487 -0.011,4.4909 -0.349,5.75 -1.5451,5.75 -0.8422,0 -1.7609,-0.5981 -2.0414,-1.3291 z m 219,0 c -0.2805,-0.7311 -0.3789,-5.3436 -0.2186,-10.25 0.2858,-8.7501 0.3393,-8.9222 2.7914,-8.9895 1.375,-0.038 3.3178,-0.4349 4.3172,-0.8828 2.744,-1.2294 4.7881,1.2957 2.2706,2.805 -4.8721,2.9208 -5.5878,4.4126 -5.5878,11.6464 0,5.6193 -0.302,7 -1.5314,7 -0.8422,0 -1.7609,-0.5981 -2.0414,-1.3291 z m 166.5728,-9.1868 0,-10.5159 2.75,0.102 c 1.5125,0.056 3.7625,-0.2143 5,-0.6008 1.846,-0.5765 2.25,-0.3226 2.25,1.414 0,1.1641 -0.6053,2.1166 -1.345,2.1166 -2.8637,0 -4.655,3.5583 -4.655,9.247 0,6.5043 -0.6697,8.753 -2.607,8.753 -1.1024,0 -1.393,-2.1941 -1.393,-10.5159 z m 34.5144,7.2047 c -5.2263,-12.5083 -6.3742,-16.5602 -5.012,-17.6908 1.7144,-1.4228 3.5522,1.2737 5.9647,8.752 0.9315,2.8875 2.0708,5.25 2.5317,5.25 0.461,0 1.8002,-2.8909 2.976,-6.4243 2.3624,-7.099 4.5757,-9.9106 5.6329,-7.1556 0.3473,0.9049 -0.9298,5.7931 -2.838,10.8626 -2.7674,7.3524 -3.9086,9.2825 -5.6403,9.5396 -1.6689,0.2477 -2.505,-0.4771 -3.615,-3.1335 z m 33.4856,-7.1888 c 0,-9.6014 0.1718,-10.6136 1.75,-10.3096 1.5272,0.2941 1.75,1.6069 1.75,10.3096 0,8.7027 -0.2228,10.0155 -1.75,10.3096 -1.5782,0.304 -1.75,-0.7082 -1.75,-10.3096 z m 26.6875,9.8542 c -0.3781,-0.3782 -0.6875,-5.1197 -0.6875,-10.5367 l 0,-9.8493 2.75,0.041 c 1.5125,0.023 3.8295,-0.083 5.1488,-0.2341 3.5622,-0.409 3.6736,1.8772 0.1795,3.6841 -3.3309,1.7225 -3.9293,3.3105 -4.3191,11.4619 -0.2401,5.0225 -1.411,7.0934 -3.0717,5.4327 z m -26,-25 c -1.4155,-1.4155 -0.6145,-3.3542 1.3858,-3.3542 1.398,0 1.968,0.5431 1.75,1.6671 -0.3569,1.8405 -2.064,2.7589 -3.1358,1.6871 z m -295.4875,-47.5542 c -0.913,-0.913 -1.2,-20.0263 -1.2,-79.9182 0,-43.295 0.2731,-79.43 0.607,-80.3 0.5443,-1.4184 6.8866,-1.5818 61.393,-1.5818 54.5064,0 60.8487,0.1634 61.393,1.5818 1.2067,3.1446 0.655,16.1335 -0.7342,17.2864 -0.9365,0.7772 -16.5531,1.1914 -51.75,1.3725 l -50.4088,0.2593 -0.2681,24.3758 c -0.1885,17.1428 0.07,24.7835 0.8725,25.75 0.9366,1.1286 9.2319,1.3742 46.4111,1.3742 51.4099,0 46.4845,-1.0066 46.4845,9.5 0,10.5066 4.9254,9.5 -46.4845,9.5 -37.1792,0 -45.4745,0.2456 -46.4111,1.3742 -0.8021,0.9665 -1.061,8.6072 -0.8725,25.75 l 0.2681,24.3758 51.5,0.5 51.5,0.5 0.292,8.3469 c 0.1852,5.2937 -0.1339,8.8602 -0.8724,9.75 -0.9755,1.1754 -10.8474,1.4031 -60.842,1.4031 -45.0826,0 -59.9711,-0.2935 -60.8776,-1.2 z m 156.044,0.372 c -0.9945,-0.6314 -1.2027,-17.5463 -1,-81.2347 l 0.256,-80.4373 9.5,0 9.5,0 0.256,80.4373 c 0.2027,63.6884 -0.01,80.6033 -1,81.2347 -0.6908,0.4385 -4.631,0.7974 -8.756,0.7974 -4.125,0 -8.0652,-0.3589 -8.756,-0.7974 z m 52.4575,0.1962 c -0.3858,-0.3858 -0.7015,-27.532 -0.7015,-60.3248 0,-65.5227 0.01,-65.6546 6.1462,-77.1663 6.42,-12.0452 16.1255,-19.8894 30.3538,-24.5326 10.7526,-3.509 31.924,-4.4275 44.598,-1.9347 22.4883,4.4231 38.1715,19.0582 41.8182,39.0239 0.6987,3.8252 1.0838,26.7897 1.0838,64.6275 0,49.1505 -0.2281,58.8833 -1.4031,59.8584 -0.8898,0.7385 -4.4563,1.0576 -9.75,0.8724 l -8.3469,-0.292 -0.5,-35 -0.5,-35 -41.5,0 -41.5,0 -0.5,35 -0.5,35 -9.0485,0.2849 c -4.9766,0.1566 -9.3641,-0.031 -9.75,-0.4167 z m 102.7985,-106.8682 c 0,-15.6022 -0.072,-16.1457 -2.8776,-21.8606 -4.7595,-9.6931 -13.9273,-14.8614 -29.4887,-16.6243 -15.4276,-1.7476 -31.4341,1.4687 -39.5984,7.9568 -9.3522,7.4323 -11.5353,13.4641 -11.5353,31.8722 0,7.6024 0.3049,14.1275 0.6776,14.5002 0.3727,0.3727 19.1602,0.5602 41.75,0.4167 l 41.0724,-0.261 0,-16 z m -505.7655,52.4228 c -13.7081,-3.2691 -22.9666,-15.8719 -21.3969,-29.1257 0.7099,-5.9939 5.0717,-14.2448 9.1918,-17.3873 6.2681,-4.7809 12.2667,-6.6933 19.391,-6.1818 10.7118,0.769 18.6917,6.2409 23.0011,15.772 2.6687,5.9025 2.7486,15.9278 0.1721,21.6011 -5.0528,11.1261 -18.8193,18.0738 -30.3591,15.3217 z m 108.5919,0.043 c -12.3001,-2.4636 -20.3345,-11.9848 -21.1311,-25.0415 -0.3184,-5.2184 0.062,-7.651 1.8411,-11.7877 4.4039,-10.2372 15.4365,-16.7949 26.8121,-15.937 23.6117,1.7808 33.6793,30.3456 16.2462,46.0954 -6.6493,6.0072 -15.1582,8.3954 -23.7683,6.6708 z m 424.0617,-85.9464 c -3.7192,-1.5027 -6.3881,-5.922 -6.3881,-10.5778 0,-10.8308 13.8709,-14.7782 20.8321,-5.9284 6.8976,8.7688 -3.6792,20.8557 -14.444,16.5062 z m 10.2352,-3.0199 c 5.1057,-3.7189 5.3469,-9.2787 0.6183,-14.25 -3.5673,-3.7504 -8.0185,-3.6949 -12.1358,0.1512 -5.2831,4.9351 -3.68,12.6925 3.2225,15.5948 3.1865,1.3398 4.8016,1.0485 8.295,-1.496 z m -9.6233,-7.5 0,-6.5 3.8776,0 c 5.1032,0 6.7997,1.9506 5.1533,5.9254 -0.6668,1.6099 -0.8932,3.9728 -0.5029,5.2509 0.6723,2.2016 0.5475,2.1711 -2.3752,-0.5808 l -3.0848,-2.9045 -1.0092,2.6545 c -1.5669,4.121 -2.0588,3.2022 -2.0588,-3.8455 z m 6.7503,-2.2495 c 0.5468,-1.6421 -2.5865,-2.8143 -3.9304,-1.4704 -0.5751,0.5751 -0.7279,1.5598 -0.3395,2.1881 0.8835,1.4297 3.7133,0.954 4.2699,-0.7177 z m -581.3016,-51.7465 c -5.7926,-2.964 -6.8657,-6.3251 -7.2896,-22.8311 l -0.3808,-14.8271 2.8608,0.3271 2.8609,0.3271 0.5234,14 c 0.5478,14.6518 1.0432,16.9301 4.0285,18.5278 2.3394,1.252 8.5568,1.252 10.8962,0 2.9853,-1.5977 3.4807,-3.876 4.0285,-18.5278 l 0.5234,-14 2.5,0 2.5,0 0.281,12.278 c 0.3268,14.2808 -0.6084,18.7244 -4.7824,22.7233 -2.5673,2.4597 -3.9907,2.9567 -9.2659,3.2351 -4.2397,0.2237 -7.2084,-0.1704 -9.284,-1.2324 z m 328.7411,-0.5296 c -3.2929,-2.0077 -6.7898,-8.1945 -5.6626,-10.0184 1.1111,-1.7979 4.5131,-0.98 5.3828,1.294 1.9376,5.0665 7.3267,7.3518 13.3892,5.6778 4.1199,-1.1375 6.1558,-3.9787 5.2986,-7.3944 -0.6245,-2.4878 -3.019,-3.674 -11.9648,-5.927 -7.8329,-1.9728 -10.633,-4.6759 -10.633,-10.2649 0,-3.311 0.6511,-5.0387 2.8094,-7.4542 6.6974,-7.4957 24.1906,-3.3395 24.1906,5.7476 0,3.5672 -3.2882,2.9871 -6.4322,-1.1349 -2.3458,-3.0755 -3.2091,-3.5 -7.1187,-3.5 -4.9036,0 -8.4491,2.5081 -8.4491,5.9769 0,2.5739 3.1872,4.5004 10,6.0447 3.025,0.6857 6.773,1.8913 8.3288,2.679 5.2156,2.6407 6.7213,11.1049 2.7906,15.6874 -4.1409,4.8278 -15.9658,6.2224 -21.9296,2.5864 z m -275.7457,-0.2595 c -0.2713,-0.7069 -0.3696,-9.1444 -0.2186,-18.75 l 0.2745,-17.4649 3,-0.2925 c 2.8517,-0.2781 3.4202,0.3767 11.5,13.2447 4.675,7.4454 8.8375,13.5396 9.25,13.5425 0.4125,0 0.7569,-5.5072 0.7653,-12.2447 0.016,-12.9406 0.5671,-15.1697 3.6045,-14.5847 1.7594,0.3388 1.8802,1.5499 1.8802,18.8484 l 0,18.4863 -3.0052,0.2951 c -2.8585,0.2807 -3.42,-0.3648 -11.5,-13.2204 -4.6722,-7.4336 -8.9448,-13.3795 -9.4948,-13.2133 -0.5818,0.1759 -1.1167,5.8094 -1.279,13.4705 -0.2631,12.4137 -0.3938,13.1681 -2.2814,13.1681 -1.1013,0 -2.2243,-0.5783 -2.4955,-1.2851 z m 61.1832,-0.2438 c -0.9496,-2.4746 -0.7211,-33.7748 0.2578,-35.3195 0.47,-0.7416 1.7006,-1.1854 2.7347,-0.9863 1.7594,0.3388 1.8802,1.5499 1.8802,18.8484 0,18.0808 -0.047,18.4929 -2.1227,18.7892 -1.252,0.1786 -2.38,-0.3677 -2.75,-1.3318 z m 45.889,-0.2211 c -3.8798,-9.7318 -12.5163,-33.8575 -12.5163,-34.9637 0,-0.9461 0.8769,-1.3137 2.6307,-1.1027 2.4196,0.291 3.0243,1.4358 7.538,14.2711 2.699,7.6751 5.1152,14.1626 5.3693,14.4166 0.9205,0.9205 1.77,-0.9977 6.4526,-14.5687 4.3825,-12.7014 4.9718,-13.8278 7.386,-14.119 3.5593,-0.4293 3.4408,0.5039 -1.9075,15.0193 -8.4783,23.0104 -8.3709,22.7971 -11.4782,22.7971 -1.7122,0 -3.0444,-0.671 -3.4746,-1.75 z m 47.4837,-17.2782 0,-19.0282 13.75,0.2782 c 12.9906,0.2628 13.75,0.3887 13.75,2.2782 0,1.8485 -0.8333,2.0379 -11,2.5 l -11,0.5 0,5 0,5 10,0.5 c 9.1667,0.4583 10,0.6667 10,2.5 0,1.8333 -0.8333,2.0417 -10,2.5 l -10,0.5 0,5.5 0,5.5 11,0.5 c 10.4708,0.4759 11.0154,0.6082 11.3196,2.75 0.3184,2.2419 0.2686,2.25 -13.75,2.25 l -14.0696,0 0,-19.0282 z m 57.471,17.8132 c -0.286,-0.7454 -0.3965,-9.2145 -0.2455,-18.8201 l 0.2745,-17.4649 12.3388,0 c 12.2803,0 12.3502,0.013 14.75,2.8058 2.8746,3.3449 3.2449,9.4923 0.7968,13.2284 -1.449,2.2115 -1.4614,2.797 -0.121,5.7149 0.8214,1.788 1.7302,6.0634 2.0196,9.5009 l 0.5261,6.25 -2.7885,0 c -3.1455,0 -3.9855,-1.8013 -4.0081,-8.595 -0.02,-6.1203 -2.1656,-7.5718 -10.6459,-7.2034 l -6.8678,0.2984 -0.5,7.5 c -0.4562,6.8431 -0.6975,7.528 -2.7545,7.8201 -1.2399,0.1761 -2.4885,-0.2897 -2.7745,-1.0351 z m 21.4797,-20.7586 c 2.661,-1.4242 3.4513,-5.764 1.5719,-8.6323 -1.4378,-2.1943 -2.2345,-2.3941 -9.5456,-2.3941 l -7.977,0 0,6 0,6 7.0657,0 c 3.8862,0 7.8844,-0.4381 8.885,-0.9736 z m 96.5203,20.7586 c -0.286,-0.7454 -0.3965,-9.2145 -0.2455,-18.8201 l 0.2745,-17.4649 2.5,0 2.5,0 0,18.5 c 0,18.4347 -0.01,18.5011 -2.2545,18.8201 -1.2399,0.1761 -2.4885,-0.2897 -2.7745,-1.0351 z m 35.529,-17.8735 0,-19.0885 10.9303,0.3385 c 9.1373,0.283 11.3815,0.6759 13.6813,2.3952 9.6774,7.2346 8.6873,28.0624 -1.596,33.5753 -2.7207,1.4586 -5.6247,1.868 -13.25,1.868 l -9.7656,0 0,-19.0885 z m 21.2245,12.1265 c 5.6622,-4.4538 6.1053,-17.8621 0.7668,-23.2006 -2.5318,-2.5318 -3.5343,-2.8374 -9.3074,-2.8374 -4.9772,0 -6.61,0.3649 -7.0769,1.5818 -0.7898,2.0582 -0.7898,22.7782 0,24.8364 0.9498,2.4752 12.34,2.1979 15.6175,-0.3802 z m 36.3887,6.1452 c -0.3165,-0.5122 0.4715,-3.5754 1.7512,-6.8072 1.2797,-3.2318 4.4653,-11.4137 7.0791,-18.1821 l 4.7524,-12.306 3.1521,0.306 c 2.9874,0.2901 3.3273,0.7762 6.507,9.3061 9.8343,26.381 10.1851,27.5474 8.4811,28.2013 -2.4817,0.9523 -4.437,-0.8446 -6.2389,-5.7333 l -1.6468,-4.468 -6.8761,-0.2991 c -3.9363,-0.1713 -7.3304,0.1552 -7.9387,0.7635 -0.5845,0.5845 -1.7651,2.9691 -2.6235,5.2991 -1.5199,4.1252 -4.9669,6.2367 -6.3989,3.9197 z m 20.8413,-16.1096 c 0.835,-1.351 -3.4526,-12.2409 -4.6609,-11.8381 -1.0611,0.3537 -4.7913,9.3156 -4.7928,11.5145 -9e-4,1.4759 8.5604,1.769 9.4537,0.3236 z m 39.1525,15.3446 c -0.934,-2.4338 -0.689,-33.7405 0.2759,-35.263 0.65,-1.0255 3.3622,-1.263 11.4215,-1 10.1558,0.3313 10.6938,0.4622 13.7556,3.3448 4.2851,4.0345 5.94,8.2849 5.94,15.256 0,7.1857 -3.0627,13.7727 -7.8979,16.9859 -2.9451,1.9572 -4.6965,2.2581 -13.143,2.2581 -7.9638,0 -9.8561,-0.2891 -10.3521,-1.5818 z m 21.4329,-5.4581 c 6.4439,-6.4439 4.8798,-23.6872 -2.3123,-25.4923 -1.284,-0.3223 -4.7854,-0.4469 -7.781,-0.2769 l -5.4466,0.3091 -0.2823,12.4445 c -0.1553,6.8445 -0.057,13.032 0.2186,13.75 0.3413,0.8896 2.5817,1.3055 7.0323,1.3055 5.2407,0 6.9345,-0.4031 8.5713,-2.0399 z"
         id="path4944"
         inkscape:connector-curvature="0" />
      <path
         style="fill:#004e59;fill-opacity:1"
         d="m 1615.1208,1365.8465 c 1.4553,-1.3488 2.646,-3.3125 2.646,-4.364 0,-1.0514 -1.5728,-6.1354 -3.4951,-11.2977 -4,-10.7419 -3.776,-9.8861 -2.5882,-9.8861 0.5041,0 2.0039,3.2625 3.3328,7.25 3.2241,9.6739 4.8846,9.8991 7.7747,1.0542 2.2358,-6.8424 3.9758,-10.016 3.9758,-7.2516 0,2.0457 -7.5398,21.5961 -9.4575,24.523 -0.8737,1.3334 -2.3189,2.4244 -3.2116,2.4244 -1.2191,0 -0.9646,-0.6101 1.0231,-2.4522 z m -338.3876,-6.315 c -3.303,-1.5782 -5.7111,-3.8327 -6.3903,-5.9828 -1.036,-3.279 0.9917,-2.7902 3.0783,0.7421 3.99,6.7546 16.3456,5.6267 16.3456,-1.4921 0,-3.1527 -2.6811,-5.1132 -9.3653,-6.848 -5.8422,-1.5163 -9.6347,-4.2735 -9.6347,-7.0044 0,-0.7899 1.3055,-2.8337 2.9012,-4.5418 2.4075,-2.5773 3.6609,-3.1058 7.3652,-3.1058 4.8852,0 9.7336,2.8952 9.7336,5.8124 0,1.2766 -0.5926,1.0281 -2.5297,-1.061 -1.3914,-1.5005 -3.6501,-3.0094 -5.0194,-3.3531 -3.5366,-0.8876 -8.3566,1.3777 -9.0821,4.2686 -0.8659,3.45 1.8398,5.9525 7.9639,7.3657 7.8688,1.8159 9.6673,3.2982 9.6673,7.9674 0,3.1201 -0.5303,4.3013 -2.5144,5.6014 -2.7775,1.8199 -10.1219,2.7769 -12.5192,1.6314 z m 43.0533,-0.4766 c -6.9273,-3.6185 -6.4235,-15.6894 0.7794,-18.673 5.2467,-2.1732 10.3149,0.4909 11.7314,6.1668 0.5948,2.3833 0.3888,2.75 -1.5445,2.75 -1.8663,0 -2.0281,-0.2443 -0.9902,-1.495 0.9997,-1.2045 0.9238,-1.9787 -0.3902,-3.9841 -2.1998,-3.3574 -5.9466,-4.1827 -9.2278,-2.0328 -2.1799,1.4283 -2.5202,2.2471 -2.0747,4.9923 0.2931,1.806 0.074,3.7425 -0.4868,4.3033 -1.5943,1.5943 1.2654,6.521 4.4315,7.6345 2.2329,0.7853 3.3018,0.5516 5.7476,-1.2567 1.6525,-1.2218 3.0046,-1.813 3.0046,-1.3139 0,2.9415 -7.2438,4.8603 -10.9803,2.9086 z m 56.9803,-0.3152 c 0,-0.8575 0.4573,-1.2764 1.0163,-0.9309 0.559,0.3454 0.7574,1.047 0.441,1.559 -0.8572,1.387 -1.4573,1.1284 -1.4573,-0.6281 z m 38.357,0.5674 c -2.0777,-0.8384 -5.357,-4.6527 -5.357,-6.2309 0,-1.6566 1.8994,-0.6699 2.529,1.3138 0.8493,2.6759 6.9304,5.26 10.363,4.4036 3.5801,-0.8933 6.108,-3.3743 6.108,-5.9949 0,-3.1668 -2.6863,-5.1145 -9.4898,-6.8805 -3.2944,-0.8552 -6.5569,-2.3304 -7.25,-3.2783 -3.6473,-4.988 0.8675,-11.3412 8.0595,-11.3412 4.6667,0 9.6803,2.8861 9.6803,5.5726 0,2.0081 -0.4491,1.8245 -3.8461,-1.5726 -1.65,-1.65 -3.9135,-3 -5.0299,-3 -3.1348,0 -7.0221,2.1036 -7.6722,4.1518 -1.2112,3.8161 0.4739,5.7739 6.3627,7.3926 3.127,0.8596 6.6856,1.9734 7.9079,2.4752 2.5414,1.0433 3.7922,4.7938 2.8504,8.5463 -1.0695,4.2614 -9.5378,6.7339 -15.2158,4.4425 z m 40.643,-1.0084 c -1.1,-1.1 -2,-2.675 -2,-3.5 0,-1.7867 3.5031,-5.5 5.1886,-5.5 0.6537,0 0.2037,0.9175 -1,2.039 -2.8711,2.6748 -2.7616,4.3651 0.4463,6.8884 1.9202,1.5105 2.1914,2.0726 1,2.0726 -0.8992,0 -2.5349,-0.9 -3.6349,-2 z m 49.2249,0.5178 c 3.4668,-1.9789 4.7751,-4.4495 4.7751,-9.0178 0,-4.8349 -1.4972,-7.3756 -5.3287,-9.0422 l -3.1713,-1.3795 2.7955,-0.039 c 4.5945,-0.064 7.7045,3.9155 7.7045,9.8596 0,5.5851 -2.5716,9.4634 -7,10.5569 -2.4548,0.6062 -2.4508,0.5893 0.2249,-0.9379 z m 34.1321,0.5285 c -7.2767,-3.065 -6.9777,-15.8897 0.4421,-18.9631 5.2467,-2.1732 10.3149,0.4909 11.7314,6.1668 0.5948,2.3833 0.3888,2.75 -1.5445,2.75 -1.8663,0 -2.0281,-0.2443 -0.9901,-1.495 0.9996,-1.2045 0.9237,-1.9787 -0.3903,-3.9841 -2.1959,-3.3514 -5.9465,-4.1828 -9.2133,-2.0423 -2.1091,1.3819 -2.507,2.2866 -2.1314,4.8458 0.254,1.7307 -0.01,3.8965 -0.5788,4.813 -0.7702,1.2334 -0.601,2.3375 0.6513,4.2486 2.4318,3.7115 6.1579,4.3662 9.747,1.7127 1.6058,-1.1872 2.9196,-1.7502 2.9196,-1.2511 0,2.6898 -6.9163,4.7684 -10.643,3.1987 z m 120.893,-0.9723 c -2.1182,-1.3326 -3.2461,-2.8333 -3.2389,-4.3093 0.01,-2.1239 0.164,-2.0707 2.4699,0.8543 2.9734,3.7716 7.3976,4.8764 11.9353,2.9804 3.5724,-1.4926 4.7398,-3.9451 3.4883,-7.3283 -0.5871,-1.5869 -2.6564,-2.7081 -7.8566,-4.2568 -8.4815,-2.5259 -11.011,-5.2753 -9.0993,-9.8905 3.0141,-7.2765 18.0853,-6.5431 18.0043,0.8762 -0.01,0.9435 -0.7682,0.4925 -2.0431,-1.2156 -3.6117,-4.8395 -11.2945,-4.6713 -13.958,0.3056 -1.8625,3.48 1.0574,6.5449 7.6385,8.0177 7.2044,1.6122 9.7429,3.6425 9.7429,7.792 0,4.5137 -2.9182,7.0373 -8.8847,7.6832 -3.8975,0.4218 -5.6389,0.1014 -8.1986,-1.5089 z m 44.5446,0.3774 c -3.052,-1.6567 -5.099,-7.2953 -4.135,-11.3905 0.6609,-2.8073 4.0966,-7.0609 5.7033,-7.0609 0.5578,0 0.029,0.9175 -1.1743,2.039 -2.4273,2.2613 -2.8177,4.9319 -0.9886,6.761 0.9333,0.9333 0.9333,1.2 0,1.2 -1.5753,0 -1.5418,4.1504 0.051,6.3288 0.6881,0.9411 2.6006,2.1134 4.25,2.6052 1.9858,0.5921 2.3232,0.9096 0.9988,0.94 -1.1,0.025 -3.2174,-0.6149 -4.7053,-1.4226 z m -236.5043,-0.5611 c -0.7971,-0.7971 -0.8109,-1.9671 -0.049,-4.1529 0.873,-2.5043 0.7665,-3.2584 -0.6014,-4.2587 -1.4757,-1.079 -1.4926,-1.3561 -0.1511,-2.4695 0.8311,-0.6897 1.5111,-1.8042 1.5111,-2.4767 0,-1.7835 -3.1181,-4.2806 -6,-4.8051 -2.2016,-0.4007 -2.2392,-0.4713 -0.3151,-0.5912 1.2017,-0.075 3.3392,0.3027 4.75,0.8391 2.3881,0.9079 2.5651,1.421 2.5651,7.4349 0,3.5528 0.4388,7.6139 0.9752,9.0247 1.053,2.7695 -0.5188,3.6215 -2.685,1.4554 z m 107.4597,0.5355 c -0.8613,-0.8718 -1.0347,-16.8077 -0.1921,-17.6504 0.3069,-0.3068 1.4211,-0.3321 2.4761,-0.056 1.6495,0.4314 1.7483,0.8014 0.7055,2.6413 -0.6671,1.1768 -1.4438,5.2187 -1.7262,8.982 -0.2823,3.7634 -0.8508,6.5009 -1.2633,6.0833 z m 138.0196,-1.4258 c 1.1807,-1.1 2.4603,-2 2.8436,-2 0.3832,0 -0.1177,0.9 -1.1132,2 -0.9955,1.1 -2.2751,2 -2.8435,2 -0.5685,0 -0.067,-0.9 1.1131,-2 z m 28.3771,-7.1564 c -0.1397,-9.1983 -0.052,-9.6315 1.8533,-9.1333 2.2907,0.599 2.5003,1.3894 0.8152,3.0745 -0.6517,0.6517 -1.4857,4.4542 -1.8534,8.45 l -0.6685,7.2652 -0.1466,-9.6564 z m 34.0142,4.9897 c -3.7751,-8.8934 -5.4307,-13.8968 -4.8053,-14.5223 0.9019,-0.9019 1.0301,-0.655 3.7326,7.189 3.0839,8.9508 4.6656,9.0533 7.7099,0.5 2.1324,-5.9911 4.2586,-9.7957 4.1633,-7.45 -0.094,2.3134 -6.755,17.8812 -7.7999,18.2295 -0.6386,0.2129 -1.9889,-1.5629 -3.0006,-3.9462 z m 33.8391,-5.3333 c 0,-6.1574 0.3598,-9.3957 1,-9 0.55,0.3399 1,4.3899 1,9 0,4.6101 -0.45,8.6601 -1,9 -0.6402,0.3957 -1,-2.8426 -1,-9 z m -453.9847,0.75 c 0.017,-8.4451 0.7195,-10.65 2.9542,-9.2688 1.1505,0.711 1.1925,1.3678 0.2236,3.4942 -0.6562,1.4403 -1.1931,5.0725 -1.1931,8.0717 0,2.9991 -0.45,5.4529 -1,5.4529 -0.582,0 -0.9936,-3.2398 -0.9847,-7.75 z m 139.0997,-5.5 c 0.073,-8.4485 0.3756,-11.9101 0.8341,-9.5524 0.3955,2.0337 1.2485,4.3355 1.8956,5.1152 0.9116,1.0985 0.8377,2.0673 -0.3279,4.3025 -1.8831,3.6107 -1.8963,5.5407 -0.068,9.9168 1.3648,3.2666 1.3358,3.4679 -0.5,3.4679 -1.8397,0 -1.9425,-0.743 -1.834,-13.25 z m 340.885,4.143 c 0,-7.8935 0.2108,-9.0261 1.5818,-8.5 0.87,0.3339 2.0205,0.607 2.5567,0.607 0.5362,0 0.2744,1.0001 -0.5818,2.2225 -1.0076,1.4385 -1.5567,4.4369 -1.5567,8.5 0,3.5183 -0.4395,6.2775 -1,6.2775 -0.5935,0 -1,-3.7023 -1,-9.107 z m -120.2772,-1.941 c 0.343,-1.3117 -0.2926,-2.9296 -1.7679,-4.5 -2.167,-2.3067 -1.7836,-3.3086 0.6454,-1.6867 2.9461,1.9672 4.4632,8.2347 1.9933,8.2347 -0.925,0 -1.2231,-0.7009 -0.8708,-2.048 z m -259.7228,-3.6746 c 0,-1.2582 2.8584,-3.7524 3.5303,-3.0804 0.2651,0.265 -0.4208,1.2989 -1.5242,2.2975 -1.1033,0.9985 -2.0061,1.3508 -2.0061,0.7829 z m -93.4899,-3.2937 c 0.3454,-0.559 1.047,-0.7574 1.559,-0.441 1.387,0.8572 1.1284,1.4573 -0.6281,1.4573 -0.8575,0 -1.2764,-0.4573 -0.9309,-1.0163 z m 218.9899,0.016 c 0.3399,-0.55 0.8165,-1 1.059,-1 0.2426,0 0.441,0.45 0.441,1 0,0.55 -0.4766,1 -1.059,1 -0.5825,0 -0.7809,-0.45 -0.441,-1 z m 165.5,0.607 c 0,-0.2162 0.675,-0.652 1.5,-0.9686 0.825,-0.3166 1.5,-0.1397 1.5,0.393 0,0.5327 -0.675,0.9686 -1.5,0.9686 -0.825,0 -1.5,-0.1769 -1.5,-0.393 z m 95.5,-0.607 c 0.3399,-0.55 0.8165,-1 1.059,-1 0.2426,0 0.441,0.45 0.441,1 0,0.55 -0.4766,1 -1.059,1 -0.5825,0 -0.7809,-0.45 -0.441,-1 z m -133.6875,-0.6831 c 0.7219,-0.2889 1.5844,-0.2534 1.9167,0.079 0.3323,0.3323 -0.2584,0.5686 -1.3125,0.5252 -1.165,-0.048 -1.4019,-0.2849 -0.6042,-0.6041 z m 15.3937,-53.1683 c -1.041,-0.6604 -1.2328,-12.727 -0.9815,-61.7347 0.3089,-60.2462 0.3369,-60.9788 2.5482,-66.8332 6.1657,-16.3233 18.4655,-27.1947 36.4588,-32.2248 8.449,-2.362 29.7116,-2.8952 39.714,-0.9958 22.9908,4.3657 38.859,19.3331 42.0256,39.6399 0.5964,3.8245 1.0167,30.0147 1.0212,63.6276 0.01,47.8981 -0.2199,57.3162 -1.4,58.2956 -0.8727,0.7243 -4.1976,1.0558 -8.75,0.8725 l -7.3425,-0.2957 -0.5,-35 -0.5,-35 -42.5,0 -42.5,0 -0.2634,34.4492 c -0.199,26.0322 -0.5655,34.6412 -1.5,35.2347 -1.6367,1.0396 -13.8799,1.0118 -15.5304,-0.035 z m 102.5714,-103.5478 c 0.3361,-18.0418 -0.8257,-23.1017 -6.8848,-29.9853 -7.6155,-8.6516 -17.954,-12.1277 -35.8928,-12.0682 -20.7519,0.069 -33.2353,6.1152 -40.1627,19.4527 -2.0975,4.0383 -2.3703,6.074 -2.659,19.8419 -0.177,8.438 -0.077,15.9804 0.2228,16.7609 0.4605,1.2001 7.0657,1.3787 42.8217,1.1581 l 42.2772,-0.2609 0.2776,-14.8992 z m -311.7776,23.407 0,-80.0078 59.893,0 c 53.6921,0 59.9559,0.1638 60.5,1.5818 1.1817,3.0793 0.6506,14.1372 -0.7342,15.2864 -0.9365,0.7772 -16.5531,1.1914 -51.75,1.3725 l -50.4088,0.2593 -0.2674,25.3765 c -0.1885,17.8828 0.069,25.7821 0.8724,26.75 0.9359,1.1277 9.2597,1.3735 46.5174,1.3735 l 45.3776,0 0,8.5 0,8.5 -45.3776,0 c -37.2577,0 -45.5815,0.2458 -46.5174,1.3735 -0.8033,0.9679 -1.0609,8.8672 -0.8724,26.75 l 0.2674,25.3765 51.2332,0.2591 51.2333,0.259 0.5728,2.2826 c 0.3151,1.2555 0.4352,4.9639 0.2668,8.241 l -0.3061,5.9583 -60.25,0.2578 -60.25,0.2578 0,-80.0078 z m 155.244,0.2422 0.256,-79.75 8.5,0 8.5,0 0.256,79.75 0.256,79.75 -9.012,0 -9.012,0 0.256,-79.75 z m -355.7662,23.8789 c -16.8809,-7.6685 -20.2027,-30.6489 -6.1667,-42.6632 13.5073,-11.5617 35.4328,-6.0195 41.3178,10.4441 3.0584,8.5562 0.734,19.8696 -5.4379,26.4667 -6.6664,7.1258 -20.7064,9.8439 -29.7132,5.7524 z m 107.4047,-0.9216 c -9.4137,-4.9178 -14.5557,-14.2123 -13.6644,-24.6994 1.8409,-21.6597 28.4388,-31.1367 43.9248,-15.6508 12.9926,12.9927 8.5454,34.5256 -8.6112,41.6941 -5.9314,2.4783 -15.4655,1.8865 -21.6492,-1.3439 z m 446.3125,-92.7073 c 0.02,-1.65 0.2445,-2.2039 0.498,-1.231 0.2535,0.973 0.2369,2.323 -0.037,3 -0.2739,0.6771 -0.4814,-0.119 -0.461,-1.769 z m -588.8803,-54.9637 c -5.5415,-2.4101 -6.7366,-6.2072 -6.7781,-21.5363 -0.031,-11.3496 0.2023,-13.5 1.4634,-13.5 1.2393,0 1.5869,2.4637 2,14.1736 0.4684,13.2772 0.6533,14.3366 2.9243,16.75 3.361,3.5718 10.709,3.6545 14.7699,0.1663 2.7799,-2.3878 2.8104,-2.5426 3.3058,-16.75 0.4135,-11.8577 0.7596,-14.3399 2,-14.3399 2.395,0 2.0953,25.7499 -0.353,30.3288 -3.0104,5.6303 -12.1138,7.8471 -19.3323,4.7075 z m 328.9991,-0.4865 c -3.3288,-2.0298 -5.3138,-4.8254 -5.3138,-7.4841 0,-2.5832 1.6766,-1.7789 3.8025,1.8242 4.8364,8.197 20.1975,6.4676 20.1975,-2.2739 0,-3.8101 -2.7104,-5.9794 -9.6567,-7.7286 -11.2771,-2.8397 -13.3433,-4.3533 -13.3433,-9.7746 0,-8.4124 9.2455,-13.044 18.4014,-9.2184 3.3777,1.4112 6.5986,4.9883 6.5986,7.3281 0,2.3136 -2.4687,1.3198 -4.1761,-1.6811 -1.9771,-3.475 -6.7157,-5.0505 -11.7971,-3.9224 -4.08,0.9058 -6.0268,3.1828 -6.0268,7.0491 0,3.539 2.4331,5.0781 11.5,7.2745 8.9087,2.158 11.5,4.4635 11.5,10.2317 0,4.6989 -2.0771,7.6441 -6.605,9.3656 -4.2325,1.6092 -11.6129,1.1246 -15.0812,-0.9901 z m -275.871,-0.3382 c -0.2719,-0.7086 -0.3703,-8.6961 -0.2186,-17.75 0.2678,-15.9866 0.3379,-16.4704 2.4273,-16.7682 1.7944,-0.2558 3.6104,2.0324 10.9418,13.7864 5.966,9.5651 9.2909,13.997 10.3485,13.7942 1.3049,-0.2503 1.6035,-2.5442 1.8369,-14.1102 0.2085,-10.3337 0.5862,-13.7088 1.5,-13.4042 0.8994,0.2998 1.2213,4.9976 1.2213,17.8237 0,17.007 -0.05,17.4238 -2.1291,17.7204 -1.7578,0.2508 -3.6612,-2.1035 -10.9147,-13.5 -8.8321,-13.8768 -10.1899,-15.5863 -11.6585,-14.6787 -0.4387,0.2712 -0.7977,6.7665 -0.7977,14.434 0,8.9102 -0.3722,13.941 -1.0314,13.941 -0.5672,0 -1.2538,-0.5798 -1.5258,-1.2884 z m 61.5572,-16.7116 c 0,-15.3333 0.2222,-18 1.5,-18 1.2778,0 1.5,2.6667 1.5,18 0,15.3333 -0.2222,18 -1.5,18 -1.2778,0 -1.5,-2.6667 -1.5,-18 z m 44.9155,15.3193 c -2.824,-7.3198 -11.9155,-32.4385 -11.9155,-32.9213 0,-0.2995 0.7875,-0.3969 1.75,-0.2163 1.2723,0.2387 3.1149,4.2837 6.75,14.8183 3.2144,9.3152 5.5416,14.5911 6.5164,14.7733 1.1334,0.2118 2.7356,-3.4035 6.3428,-14.312 4.2986,-12.9991 6.4637,-16.9718 8.2669,-15.1685 0.2969,0.2969 -2.3565,8.34 -5.8965,17.8735 -5.377,14.4808 -6.7894,17.3863 -8.5814,17.653 -1.578,0.235 -2.4325,-0.4258 -3.2327,-2.5 z m 48.0845,-15.3193 0,-18 12.441,0 c 6.9648,0 12.705,0.4273 13.0409,0.9707 0.8518,1.3782 -2.6473,1.9927 -12.9819,2.2795 l -9,0.2498 0,6 0,6 9.7588,0.5 c 5.5059,0.2821 9.7589,0.9358 9.7589,1.5 0,0.5642 -4.253,1.2179 -9.7589,1.5 l -9.7588,0.5 0,6.5 0,6.5 10.9198,0.5 c 7.4746,0.3423 11.0502,0.8944 11.3333,1.75 0.3168,0.9574 -2.6492,1.25 -12.6698,1.25 l -13.0833,0 0,-18 z m 57.4428,16.7116 c -0.2719,-0.7086 -0.3703,-8.6961 -0.2186,-17.75 l 0.2758,-16.4616 8.5,-0.3043 c 10.3852,-0.3717 14.5168,0.3211 17.0558,2.8601 2.6318,2.6318 2.5803,8.8658 -0.1014,12.275 -1.8969,2.4116 -1.9314,2.7746 -0.4752,4.9971 0.8637,1.3182 1.8493,5.3836 2.1902,9.0344 0.5219,5.5893 0.3756,6.6377 -0.9266,6.6377 -1.155,0 -1.7249,-1.5818 -2.2518,-6.25 -0.9962,-8.8273 -2.0951,-9.75 -11.6108,-9.75 -9.2633,0 -9.8802,0.6203 -9.8802,9.9343 0,5.5853 -1.3088,8.0304 -2.5572,4.7773 z m 22.4846,-20.3465 c 5.422,-6.8929 0.3303,-12.3651 -11.5052,-12.3651 -6.3686,0 -8.4277,1.6704 -8.4085,6.8214 0.03,7.9804 0.2605,8.1786 9.5304,8.1786 7.7872,0 8.4413,-0.166 10.3833,-2.6349 z m 95.5473,20.4297 c -0.2894,-0.7544 -0.4022,-8.7793 -0.2505,-17.8332 0.2319,-13.8433 0.5144,-16.4616 1.7758,-16.4616 1.2759,0 1.5,2.6019 1.5,17.4167 0,13.0405 -0.3139,17.5213 -1.2495,17.8331 -0.6872,0.2291 -1.4863,-0.2007 -1.7758,-0.955 z m 35.5253,-16.7948 0,-18 9.3521,0 c 8.0582,0 9.8222,0.3141 12.75,2.2699 4.7189,3.1525 6.8945,7.969 6.8964,15.2682 10e-4,4.2754 -0.6553,7.3407 -2.2485,10.5 -3.1629,6.2722 -6.9756,7.9584 -18,7.9603 l -8.75,0 0,-18 z m 20.2881,13.5469 c 5.4053,-3.5417 7.2703,-14.5178 3.775,-22.2162 -2.2494,-4.9542 -4.463,-6.3101 -11.4849,-7.0348 -9.309,-0.9608 -9.5782,-0.5198 -9.5782,15.6896 0,12.1725 0.2192,14.051 1.75,15 2.43,1.5065 12.4607,0.5778 15.5381,-1.4386 z m 37.7229,3.2031 c 0.01,-0.6875 2.8637,-8.675 6.3505,-17.75 5.1594,-13.4283 6.7271,-16.5578 8.4214,-16.8107 1.2589,-0.1879 2.4882,0.4488 3.11,1.6107 1.3192,2.4648 12.1071,32.1546 12.1071,33.3202 0,0.4839 -0.6435,0.8798 -1.4301,0.8798 -0.8102,0 -2.2777,-2.2756 -3.3856,-5.25 l -1.9555,-5.25 -8.1513,-0.291 -8.1513,-0.2911 -2.4505,5.5411 c -2.2639,5.1192 -4.4908,7.2594 -4.4647,4.291 z m 20.989,-14.5362 c 0,-3.2102 -4.5813,-13.7021 -6.1117,-13.9968 -1.0278,-0.1979 -2.1819,1.6724 -3.701,5.9977 -3.3487,9.5345 -3.251,9.7853 3.8127,9.7853 5.094,0 6,-0.2697 6,-1.7862 z m 39,-2.2138 0,-18 8.75,0 c 11.0147,0 14.8128,1.6829 18.073,7.9984 1.9147,3.7093 2.243,5.5915 1.8683,10.711 -0.955,13.0448 -5.8464,17.289 -19.9257,17.289 l -8.7656,0 0,-18 z m 17.966,14.2484 c 4.8369,-2.44 7.3439,-7.2199 7.4032,-14.1154 0.086,-9.9917 -4.0961,-14.8365 -13.6593,-15.8235 -8.5541,-0.8829 -8.7099,-0.6036 -8.7099,15.6129 0,9.3048 0.3837,14.0612 1.2,14.8776 1.7744,1.7744 9.7919,1.4532 13.766,-0.5516 z"
         id="path4942"
         inkscape:connector-curvature="0" />
    </g>
  </g>
</svg>
