<?xml version="1.0" encoding="UTF-8" standalone="no"?>
<!-- Created with Inkscape (http://www.inkscape.org/) -->

<svg
   xmlns:dc="http://purl.org/dc/elements/1.1/"
   xmlns:cc="http://creativecommons.org/ns#"
   xmlns:rdf="http://www.w3.org/1999/02/22-rdf-syntax-ns#"
   xmlns:svg="http://www.w3.org/2000/svg"
   xmlns="http://www.w3.org/2000/svg"
   xmlns:sodipodi="http://sodipodi.sourceforge.net/DTD/sodipodi-0.dtd"
   xmlns:inkscape="http://www.inkscape.org/namespaces/inkscape"
   width="210mm"
   height="297mm"
   viewBox="0 0 744.09448819 1052.3622047"
   id="svg2"
   version="1.1"
   inkscape:version="0.91 r13725"
   sodipodi:docname="logo_chimbada.svg">
  <defs
     id="defs4" />
  <sodipodi:namedview
     id="base"
     pagecolor="#ffffff"
     bordercolor="#666666"
     borderopacity="1.0"
     inkscape:pageopacity="0.0"
     inkscape:pageshadow="2"
     inkscape:zoom="0.35"
     inkscape:cx="221.67642"
     inkscape:cy="857.5024"
     inkscape:document-units="px"
     inkscape:current-layer="layer1"
     showgrid="false"
     inkscape:window-width="1323"
     inkscape:window-height="747"
     inkscape:window-x="43"
     inkscape:window-y="21"
     inkscape:window-maximized="1" />
  <metadata
     id="metadata7">
    <rdf:RDF>
      <cc:Work
         rdf:about="">
        <dc:format>image/svg+xml</dc:format>
        <dc:type
           rdf:resource="http://purl.org/dc/dcmitype/StillImage" />
        <dc:title />
      </cc:Work>
    </rdf:RDF>
  </metadata>
  <g
     inkscape:label="Layer 1"
     inkscape:groupmode="layer"
     id="layer1">
    <g
       style="opacity:0.4"
       id="g3659"
       transform="translate(236.85663,44.932133)" />
    <g
       id="g3667"
       transform="translate(236.85663,44.932133)" />
    <g
       id="g3669"
       transform="translate(236.85663,44.932133)" />
    <g
       id="g3671"
       transform="translate(236.85663,44.932133)" />
    <g
       id="g3673"
       transform="translate(236.85663,44.932133)" />
    <g
       id="g3675"
       transform="translate(236.85663,44.932133)" />
    <g
       id="g3677"
       transform="translate(236.85663,44.932133)" />
    <g
       id="g3679"
       transform="translate(236.85663,44.932133)" />
    <g
       id="g3681"
       transform="translate(236.85663,44.932133)" />
    <g
       id="g3683"
       transform="translate(236.85663,44.932133)" />
    <g
       id="g3685"
       transform="translate(236.85663,44.932133)" />
    <g
       id="g3687"
       transform="translate(236.85663,44.932133)" />
    <g
       id="g3689"
       transform="translate(236.85663,44.932133)" />
    <g
       id="g3691"
       transform="translate(236.85663,44.932133)" />
    <g
       id="g3693"
       transform="translate(236.85663,44.932133)" />
    <g
       id="g3695"
       transform="translate(236.85663,44.932133)" />
    <g
       id="g4356"
       transform="matrix(0.94614966,0,0,0.94457888,399.80678,188.55352)">
      <g
         transform="translate(-371.73613,-246.47722)"
         id="g4268">
        <g
           transform="translate(110.70145,217.3012)"
           id="g5081"
           inkscape:export-xdpi="90"
           inkscape:export-ydpi="90">
          <g
             id="g6071"
             transform="matrix(0.23537048,-0.2610645,0.2610645,0.23537048,-78.984527,102.86106)">
            <path
               id="path5991"
               d="m 256,111.304 0,-44.521 C 151.499,66.783 66.783,151.499 66.783,256 c 0,104.501 84.716,189.217 189.217,189.217 l 0,-44.522 c -1.736,0 -3.463,-0.041 -5.185,-0.102 1.722,0.061 3.448,0.102 5.185,0.102 l 0,-211.478 c -48.966,0 -110.429,18.15 -139.346,27.687 -0.404,1.445 -0.782,2.901 -1.143,4.363 C 131.069,158.131 188.061,111.304 256,111.304 Z M 113.289,279.948 c 0.181,1.09 0.375,2.176 0.581,3.258 -0.206,-1.082 -0.4,-2.167 -0.581,-3.258 z m 131.276,120.299 c 1.695,0.134 3.401,0.229 5.113,0.303 -1.712,-0.074 -3.418,-0.17 -5.113,-0.303 z m -33.086,-6.541 c 3.488,1.128 7.034,2.125 10.633,2.99 -3.599,-0.864 -7.144,-1.863 -10.633,-2.99 z m 10.726,3.012 c 1.79,0.429 3.592,0.825 5.407,1.186 -1.816,-0.361 -3.618,-0.758 -5.407,-1.186 z m 5.475,1.199 c 1.755,0.348 3.522,0.663 5.299,0.948 -1.777,-0.284 -3.544,-0.599 -5.299,-0.948 z m 5.589,0.997 c 1.733,0.274 3.476,0.514 5.228,0.726 -1.753,-0.212 -3.496,-0.454 -5.228,-0.726 z m 5.974,0.81 c 1.633,0.189 3.272,0.353 4.921,0.487 -1.649,-0.133 -3.288,-0.298 -4.921,-0.487 z m -27.765,-56.539 0,50.521 C 161.751,377.639 123.8,335.394 113.87,283.209 c 1.558,-0.063 3.16,0.109 4.762,0.59 l 62.644,18.794 c 17.926,5.376 30.202,21.876 30.202,40.592 z"
               style="fill:#787680"
               inkscape:connector-curvature="0" />
            <path
               id="path5993"
               d="m 251.70945,66.783 0,44.522 c 67.516,0 124.229,46.243 140.201,108.782 -0.274,-1.065 -0.559,-2.126 -0.855,-3.182 -28.917,-9.537 -90.38,-27.687 -139.346,-27.687 l 0,211.478 c 1.666,0 3.322,-0.039 4.974,-0.095 -1.652,0.056 -3.309,0.095 -4.974,0.095 l 0,44.522 c 104.501,0 189.217,-84.716 189.217,-189.217 0,-104.501 -84.716,-189.218 -189.217,-189.218 z m 142.992,211.478 c -0.081,0.523 -0.173,1.043 -0.259,1.564 0.086,-0.52 0.161,-1.043 0.242,-1.564 l 0.017,0 z m -136.78,122.293 c 1.647,-0.07 3.289,-0.156 4.922,-0.28 1.634,-0.125 3.257,-0.286 4.875,-0.464 -1.618,0.178 -3.241,0.339 -4.875,0.464 -1.633,0.123 -3.276,0.21 -4.922,0.28 z m 21.768,-2.572 c 1.574,-0.308 3.143,-0.633 4.698,-0.992 1.556,-0.359 3.099,-0.752 4.636,-1.162 -1.537,0.409 -3.08,0.803 -4.636,1.162 -1.556,0.36 -3.124,0.684 -4.698,0.992 z m -10.76,1.69 c 3.227,-0.383 6.421,-0.872 9.58,-1.463 -3.158,0.591 -6.352,1.08 -9.58,1.463 z m 21.245,-4.155 c 1.53,-0.421 3.054,-0.857 4.563,-1.327 -1.509,0.47 -3.033,0.906 -4.563,1.327 z m 6.057,-1.811 0,-50.521 c 0,-18.716 12.276,-35.214 30.202,-40.593 l 62.644,-18.794 c 1.603,-0.481 3.204,-0.653 4.762,-0.59 -9.931,52.185 -47.881,94.431 -97.608,110.498 z m 98.189,-113.758 c -0.181,1.09 -0.375,2.176 -0.581,3.258 0.206,-1.082 0.4,-2.167 0.581,-3.258 z"
               style="fill:#787680;fill-opacity:1"
               inkscape:connector-curvature="0" />
            <g
               id="g5995">
              <path
                 id="path5997"
                 d="m 396.99,223.322 c -0.499,-2.159 -1.051,-4.297 -1.644,-6.418 l 0,0 c 0.594,2.122 1.146,4.26 1.644,6.418 z"
                 style="fill:#87868a"
                 inkscape:connector-curvature="0" />
              <path
                 id="path5999"
                 d="m 299.028,394.19 c 0.501,-0.156 0.995,-0.324 1.494,-0.485 l 0,0 c -0.499,0.161 -0.993,0.33 -1.494,0.485 z"
                 style="fill:#87868a"
                 inkscape:connector-curvature="0" />
            </g>
            <circle
               id="circle6001"
               r="22.261"
               cy="250.435"
               cx="155.826"
               style="fill:#ffffff;fill-opacity:1" />
            <circle
               id="circle6011"
               r="55.652"
               cy="256"
               cx="256"
               style="fill:#ff0c38;fill-opacity:1" />
            <circle
               id="circle6015"
               r="33.390999"
               cy="256"
               cx="256"
               style="fill:#ff0c38;fill-opacity:1" />
            <path
               id="path6019"
               d="m 111.304,256 c 0,-79.913 64.782,-144.696 144.696,-144.696 l 0,-44.521 C 151.499,66.783 66.783,151.499 66.783,256 c 0,104.501 84.716,189.217 189.217,189.217 l 0,-44.522 C 176.087,400.696 111.304,335.913 111.304,256 Z"
               style="fill:#57565c"
               inkscape:connector-curvature="0" />
            <path
               id="path6021"
               d="m 396.40545,256 c 0,-79.913 -64.782,-144.696 -144.696,-144.696 l 0,-44.521 c 104.501,0 189.217,84.716 189.217,189.217 0,104.501 -84.716,189.217 -189.217,189.217 l 0,-44.522 c 79.913,0.001 144.696,-64.782 144.696,-144.695 z"
               style="fill:#3e3d42"
               inkscape:connector-curvature="0" />
            <g
               id="g6023">
              <path
                 id="path6025"
                 d="m 256.026,111.304 0,-44.521 c -62.895,0 -118.613,30.696 -153.018,77.913 l 60.564,0 c 25.072,-20.849 57.297,-33.392 92.454,-33.392 z"
                 style="fill:#ff0c38"
                 inkscape:connector-curvature="0" />
              <path
                 id="path6027"
                 d="m 163.572,367.304 -60.564,0 c 34.405,47.218 90.122,77.913 153.018,77.913 l 0,-44.522 c -35.157,0.001 -67.382,-12.542 -92.454,-33.391 z"
                 style="fill:#ff0c38"
                 inkscape:connector-curvature="0" />
            </g>
            <g
               id="g6029"
               style="fill:#ff0c38;fill-opacity:1"
               transform="translate(-4.29055,0)">
              <path
                 id="path6031"
                 d="m 348.479,144.696 60.564,0 C 374.638,97.478 318.921,66.783 256.025,66.783 l 0,44.522 c 35.157,-0.001 67.382,12.542 92.454,33.391 z"
                 style="fill:#ff0c38;fill-opacity:1"
                 inkscape:connector-curvature="0" />
              <path
                 id="path6033"
                 d="m 256.026,400.696 0,44.522 c 62.895,0 118.613,-30.696 153.018,-77.913 l -60.564,0 c -25.073,20.848 -57.298,33.391 -92.454,33.391 z"
                 style="fill:#ff0c38;fill-opacity:1"
                 inkscape:connector-curvature="0" />
            </g>
            <g
               id="g6035" />
            <g
               id="g6037" />
            <g
               id="g6039" />
            <g
               id="g6041" />
            <g
               id="g6043" />
            <g
               id="g6045" />
            <g
               id="g6047" />
            <g
               id="g6049" />
            <g
               id="g6051" />
            <g
               id="g6053" />
            <g
               id="g6055" />
            <g
               id="g6057" />
            <g
               id="g6059" />
            <g
               id="g6061" />
            <g
               id="g6063" />
            <circle
               id="circle6001-9"
               r="22.261"
               cy="252.16492"
               cx="359.06442"
               style="fill:#ffffff;fill-opacity:1" />
          </g>
          <path
             inkscape:connector-curvature="0"
             style="fill:#9bd8eb"
             d="m 256.273,458.54 0,-213.798 -51.896,0 0,213.798 c 0,8.842 -6.064,16.53 -14.663,18.59 l -25.735,6.165 c -4.904,1.175 -8.362,5.56 -8.362,10.602 l 0,7.2 c 0,6.021 4.881,10.902 10.902,10.902 l 127.61,0 c 6.021,0 10.902,-4.881 10.902,-10.902 l 0,-7.2 c 0,-5.043 -3.458,-9.427 -8.362,-10.602 l -25.735,-6.165 c -8.598,-2.06 -14.661,-9.748 -14.661,-18.59 z"
             id="path4995" />
          <g
             style="opacity:0.1"
             id="g4997">
            <path
               inkscape:connector-curvature="0"
               d="m 296.67,483.296 -25.735,-6.165 c -8.599,-2.06 -14.662,-9.748 -14.662,-18.59 l 0,-213.799 -51.896,0 0,101.301 c 9.914,8.579 23.162,11.408 35.283,8.505 l 0,111.69 c 0,8.842 6.064,16.53 14.663,18.59 l 25.735,6.165 c 4.904,1.175 8.362,5.56 8.362,10.602 l 0,7.2 c 0,1.115 -0.169,2.19 -0.48,3.204 l 6.191,0 c 6.021,0 10.902,-4.881 10.902,-10.902 l 0,-7.2 c -0.001,-5.042 -3.459,-9.427 -8.363,-10.601 z"
               id="path4999" />
          </g>
          <path
             inkscape:connector-curvature="0"
             style="fill:#9bd8eb"
             d="m 405.099,85.306 -349.548,0 c -11.716,0 -18.378,13.403 -11.303,22.743 l 154.376,203.79 c 15.914,21.008 47.489,21.008 63.403,0 l 154.376,-203.79 c 7.074,-9.34 0.412,-22.743 -11.304,-22.743 z"
             id="path5001" />
          <path
             inkscape:connector-curvature="0"
             style="fill:#9bd8eb;fill-opacity:0.63380283"
             d="m 405.07464,85.139656 -349.547993,0 c -11.716,0 -18.378,13.402998 -11.303,22.742994 l 154.375993,203.79 c 15.914,21.008 47.489,21.008 63.403,0 l 154.376,-203.79 c 7.074,-9.339996 0.412,-22.742994 -11.304,-22.742994 z"
             id="path5001-5" />
          <path
             inkscape:connector-curvature="0"
             style="fill:#e85668"
             d="m 80.222,155.538 118.401,156.3 c 15.914,21.008 47.489,21.008 63.403,0 l 118.401,-156.3 -300.205,0 0,0 z"
             id="path5005" />
          <polygon
             style="fill:#e85668;fill-opacity:1"
             points="358.975,183.856 380.427,155.538 80.222,155.538 101.674,183.856 "
             id="polygon5007" />
          <g
             style="opacity:0.4"
             id="g5039">
            <ellipse
               style="fill:#f98f9d"
               cx="278.069"
               cy="243.11"
               rx="21.284"
               ry="12.755"
               id="ellipse5041" />
            <ellipse
               style="fill:#f98f9d"
               cx="182.57899"
               cy="243.11"
               rx="21.284"
               ry="12.755"
               id="ellipse5043" />
          </g>
          <g
             id="g5045" />
          <g
             id="g5047" />
          <g
             id="g5049" />
          <g
             id="g5051" />
          <g
             id="g5053" />
          <g
             id="g5055" />
          <g
             id="g5057" />
          <g
             id="g5059" />
          <g
             id="g5061" />
          <g
             id="g5063" />
          <g
             id="g5065" />
          <g
             id="g5067" />
          <g
             id="g5069" />
          <g
             id="g5071" />
          <g
             id="g5073" />
          <g
             transform="matrix(0.56550738,0,0,0.56550738,-83.30079,6.0931804)"
             id="g4739"
             style="fill:#000000;fill-opacity:1">
            <g
               transform="matrix(-1.39996,0.01040711,-0.01040711,-1.39996,1650.9528,818.80175)"
               id="g4687"
               style="fill:#000000;fill-opacity:1">
              <path
                 style="fill:#000000;fill-opacity:1"
                 sodipodi:nodetypes="cccscsscsc"
                 inkscape:connector-curvature="0"
                 id="path3665-3"
                 d="m 766.22156,293.84905 c -1.68033,0.0452 -3.35591,0.65288 -4.72266,1.84375 -3.123,2.721 -3.44756,7.45903 -0.72656,10.58203 5.646,6.477 13.80767,10.19336 22.38867,10.19336 8.58,0 16.73972,-3.71631 22.38672,-10.19531 2.722,-3.122 2.39644,-7.85908 -0.72656,-10.58008 -3.123,-2.722 -7.86003,-2.39839 -10.58203,0.72461 -2.798,3.21 -6.83513,5.05273 -11.07813,5.05273 -4.244,0 -8.28308,-1.84178 -11.08008,-5.05078 -1.53056,-1.75725 -3.69894,-2.62844 -5.85937,-2.57031 z" />
            </g>
            <g
               id="g4735"
               style="fill:#000000;fill-opacity:1">
              <path
                 d="m 612.20137,380.97071 c 5.79667,0.1571 10.62351,-4.415 10.78061,-10.21167 l 0.39951,-14.74107 c 0.1571,-5.79665 -4.41501,-10.6235 -10.21167,-10.7806 -5.79667,-0.1571 -10.6235,4.41501 -10.7806,10.21169 l -0.39952,14.74105 c -0.1571,5.79665 4.41501,10.6235 10.21167,10.7806 z"
                 id="path3665-3-7"
                 inkscape:connector-curvature="0"
                 sodipodi:nodetypes="sssssss"
                 style="fill:#000000;fill-opacity:1" />
              <path
                 d="m 492.17934,382.09923 c 5.79667,0.1571 10.6235,-4.41501 10.7806,-10.21167 l 0.39951,-14.74107 c 0.1571,-5.79665 -4.415,-10.6235 -10.21167,-10.7806 -5.79666,-0.1571 -10.6235,4.415 -10.7806,10.21168 l -0.39951,14.74106 c -0.1571,5.79666 4.415,10.6235 10.21167,10.7806 z"
                 id="path3665-3-7-5"
                 inkscape:connector-curvature="0"
                 sodipodi:nodetypes="sssssss"
                 style="fill:#000000;fill-opacity:1" />
            </g>
          </g>
        </g>
        <g
           id="g6494"
           transform="translate(527.22635,512.4462)"
           inkscape:export-xdpi="90"
           inkscape:export-ydpi="90">
          <path
             id="path6456"
             d="m -115.48153,-67.651662 c -4.0777,-4.491903 -11.04864,-4.828846 -15.54055,-0.751158 l -20.90171,18.974282 c -4.49191,4.077686 -4.82828,11.049254 -0.75117,15.540538 4.07713,4.491282 11.04864,4.82885 15.54055,0.751163 l 20.9017,-18.97428 c 4.49191,-4.077685 4.8283,-11.049254 0.75118,-15.540545 z m -22.78212,33.272127 c -3.80625,3.455256 -9.71341,3.169729 -13.16866,-0.636517 -3.45526,-3.806246 -3.16973,-9.713406 0.63652,-13.168658 l 20.90233,-18.974849 c 3.80568,-3.455874 9.71284,-3.170354 13.16866,0.636515 3.45582,3.80687 3.16973,9.713406 -0.63652,13.168668 z m 4.00599,-7.723172 c -0.34313,0.311499 -0.87386,0.28644 -1.18593,-0.05732 l -7.33657,-8.081823 c -0.31205,-0.343761 -0.28581,-0.874438 0.0574,-1.185942 0.34313,-0.311496 0.87387,-0.286435 1.18593,0.05732 l 7.33713,8.082447 c 0.3115,0.343142 0.28526,0.873819 -0.0579,1.185316 z m 9.36736,-8.50355 c -0.34314,0.311496 -0.87387,0.286435 -1.18594,-0.05732 l -7.33656,-8.081821 c -0.31206,-0.34376 -0.28581,-0.874445 0.0573,-1.185941 0.34314,-0.311496 0.87388,-0.286435 1.18594,0.05733 l 7.33712,8.082446 c 0.31151,0.343135 0.28526,0.873821 -0.0578,1.185316 z m 1.12333,-14.497294 c 0.30024,-0.272556 0.76513,-0.250081 1.03769,0.05012 0.27256,0.300245 0.25009,0.765137 -0.0501,1.037693 -0.30025,0.272557 -0.76514,0.250098 -1.03769,-0.05012 -0.27257,-0.300254 -0.25009,-0.765137 0.0501,-1.037702 z m 3.962,4.364475 c 0.30025,-0.272558 0.76513,-0.250093 1.03769,0.05016 0.27256,0.300254 0.25009,0.765137 -0.0501,1.037702 -0.30024,0.272559 -0.76513,0.250086 -1.03769,-0.05016 -0.27312,-0.300864 -0.25008,-0.765137 0.0501,-1.037695 z m -5.9823,-2.530463 c 0.30024,-0.272573 0.76513,-0.250098 1.03769,0.05012 0.27256,0.300253 0.25009,0.765145 -0.0501,1.037701 -0.30025,0.272556 -0.76514,0.25009 -1.0377,-0.05012 -0.27256,-0.300245 -0.25009,-0.765137 0.0501,-1.037693 z m 3.962,4.364461 c 0.30024,-0.272558 0.76513,-0.250084 1.03769,0.05016 0.27257,0.300246 0.25009,0.765129 -0.0501,1.037695 -0.30024,0.272558 -0.76513,0.250085 -1.03768,-0.05016 -0.27313,-0.300865 -0.2501,-0.76513 0.0501,-1.037697 z m -22.0215,21.97514 c -0.30026,0.27256 -0.76514,0.250089 -1.0377,-0.05016 -0.27256,-0.300247 -0.25009,-0.765135 0.0501,-1.037696 0.30025,-0.27256 0.76514,-0.25009 1.0377,0.05016 0.27256,0.300248 0.25009,0.765135 -0.0501,1.037696 z m -3.96201,-4.364471 c -0.30025,0.272561 -0.76513,0.250091 -1.0377,-0.05015 -0.27255,-0.300248 -0.25009,-0.765135 0.0501,-1.037696 0.30026,-0.272561 0.76514,-0.250091 1.03771,0.05016 0.27255,0.300248 0.25009,0.765135 -0.0501,1.037696 z m 5.9823,2.530471 c -0.30024,0.272561 -0.76513,0.25009 -1.03769,-0.05016 -0.27257,-0.300247 -0.25009,-0.765136 0.0501,-1.037696 0.30025,-0.272561 0.76514,-0.250091 1.0377,0.05016 0.27256,0.300248 0.25009,0.765135 -0.0501,1.037696 z m -3.962,-4.364471 c -0.30025,0.272561 -0.76514,0.25009 -1.0377,-0.05016 -0.27256,-0.300249 -0.25008,-0.765136 0.0501,-1.037697 0.30025,-0.27256 0.76513,-0.25009 1.0377,0.05016 0.27255,0.300247 0.25009,0.765135 -0.0501,1.037695 z"
             style="fill:#ffb99d;fill-opacity:1"
             inkscape:connector-curvature="0"
             sodipodi:nodetypes="sssssssssscsssssssssssssssssssssssssssssssssssssssssssssssssssssssss" />
          <g
             id="g6458" />
          <g
             id="g6460" />
          <g
             id="g6462" />
          <g
             id="g6464" />
          <g
             id="g6466" />
          <g
             id="g6468" />
          <g
             id="g6470" />
          <g
             id="g6472" />
          <g
             id="g6474" />
          <g
             id="g6476" />
          <g
             id="g6478" />
          <g
             id="g6480" />
          <g
             id="g6482" />
          <g
             id="g6484" />
          <g
             id="g6486" />
        </g>
        <flowRoot
           xml:space="preserve"
           id="flowRoot4232"
           style="font-style:normal;font-weight:normal;font-size:83.03676605px;line-height:125%;font-family:sans-serif;letter-spacing:0px;word-spacing:0px;fill:#404040;fill-opacity:1;stroke:none;stroke-width:1px;stroke-linecap:butt;stroke-linejoin:miter;stroke-opacity:1"
           transform="translate(152.53304,-118.18784)"
           inkscape:export-xdpi="90"
           inkscape:export-ydpi="90"><flowRegion
             id="flowRegion4234"><rect
               id="rect4236"
               width="700.39636"
               height="239.05748"
               x="-101.59585"
               y="778.60449"
               style="fill:#404040;fill-opacity:1" /></flowRegion><flowPara
             id="flowPara4238"
             style="font-style:normal;font-variant:normal;font-weight:normal;font-stretch:normal;font-size:186.8327179px;font-family:'Lobster 1.4';-inkscape-font-specification:'Lobster 1.4, ';fill:#404040;fill-opacity:1">Drunksi </flowPara></flowRoot>      </g>
    </g>
  </g>
</svg>
